<svg width="44" height="38" viewBox="0 0 44 38" fill="none" xmlns="http://www.w3.org/2000/svg">
<path d="M5.5 19V11.1C5.5 10.5399 5.5 10.2599 5.60899 10.046C5.70487 9.85785 5.85785 9.70487 6.04601 9.60899C6.25992 9.5 6.53995 9.5 7.1 9.5H11" stroke="#11389A" stroke-width="2"/>
<path d="M38.5 19V11.1C38.5 10.5399 38.5 10.2599 38.391 10.046C38.2951 9.85785 38.1422 9.70487 37.954 9.60899C37.7401 9.5 37.4601 9.5 36.9 9.5H33" stroke="#11389A" stroke-width="2"/>
<path d="M5 4L8 6L5 8V4Z" fill="#11389A"/>
<path d="M19 4L16 6L19 8V4Z" fill="#11389A"/>
<path d="M27.5 23.7666C27.5 23.2066 27.5 22.9265 27.609 22.7126C27.7049 22.5245 27.8578 22.3715 28.046 22.2756C28.2599 22.1666 28.5399 22.1666 29.1 22.1666H31.1667L33 23.75H36.9C37.4601 23.75 37.7401 23.75 37.954 23.859C38.1422 23.9548 38.2951 24.1078 38.391 24.296C38.5 24.5099 38.5 24.7899 38.5 25.35V30.0666C38.5 30.6267 38.5 30.9067 38.391 31.1206C38.2951 31.3088 38.1422 31.4618 37.954 31.5576C37.7401 31.6666 37.4601 31.6666 36.9 31.6666H29.1C28.5399 31.6666 28.2599 31.6666 28.046 31.5576C27.8578 31.4618 27.7049 31.3088 27.609 31.1206C27.5 30.9067 27.5 30.6267 27.5 30.0666V23.7666Z" stroke="#11389A" stroke-width="2" stroke-linejoin="round"/>
<path d="M5.5 23.7666C5.5 23.2066 5.5 22.9265 5.60899 22.7126C5.70487 22.5245 5.85785 22.3715 6.04601 22.2756C6.25992 22.1666 6.53995 22.1666 7.1 22.1666H9.16667L11 23.75H14.9C15.4601 23.75 15.7401 23.75 15.954 23.859C16.1422 23.9548 16.2951 24.1078 16.391 24.296C16.5 24.5099 16.5 24.7899 16.5 25.35V30.0666C16.5 30.6267 16.5 30.9067 16.391 31.1206C16.2951 31.3088 16.1422 31.4618 15.954 31.5576C15.7401 31.6666 15.4601 31.6666 14.9 31.6666H7.1C6.53995 31.6666 6.25992 31.6666 6.04601 31.5576C5.85785 31.4618 5.70487 31.3088 5.60899 31.1206C5.5 30.9067 5.5 30.6267 5.5 30.0666V23.7666Z" stroke="#11389A" stroke-width="2" stroke-linejoin="round"/>
<path d="M16.5 6.35C16.5 5.78995 16.5 5.50992 16.609 5.29601C16.7049 5.10785 16.8578 4.95487 17.046 4.85899C17.2599 4.75 17.5399 4.75 18.1 4.75H20.1667L22 6.33333H25.9C26.4601 6.33333 26.7401 6.33333 26.954 6.44233C27.1422 6.5382 27.2951 6.69118 27.391 6.87934C27.5 7.09325 27.5 7.37328 27.5 7.93333V12.65C27.5 13.2101 27.5 13.4901 27.391 13.704C27.2951 13.8922 27.1422 14.0451 26.954 14.141C26.7401 14.25 26.4601 14.25 25.9 14.25H18.1C17.5399 14.25 17.2599 14.25 17.046 14.141C16.8578 14.0451 16.7049 13.8922 16.609 13.704C16.5 13.4901 16.5 13.2101 16.5 12.65V6.35Z" stroke="#11389A" stroke-width="2" stroke-linejoin="round"/>
</svg>
