<svg width="43" height="48" viewBox="0 0 43 48" fill="none" xmlns="http://www.w3.org/2000/svg">
<path d="M5.375 16C5.375 14.1144 5.375 13.1716 5.96079 12.5858C6.54657 12 7.48938 12 9.375 12H33.625C35.5106 12 36.4534 12 37.0392 12.5858C37.625 13.1716 37.625 14.1144 37.625 16V32C37.625 33.8856 37.625 34.8284 37.0392 35.4142C36.4534 36 35.5106 36 33.625 36H9.375C7.48938 36 6.54657 36 5.96079 35.4142C5.375 34.8284 5.375 33.8856 5.375 32V16Z" fill="#7E869E" fill-opacity="0.25"/>
<ellipse cx="10.75" cy="30" rx="1.79167" ry="2" fill="#11389A"/>
<rect x="5.375" y="18" width="32.25" height="4" fill="#11389A"/>
</svg>
