<?xml version="1.0" standalone="no"?>
<!DOCTYPE svg PUBLIC "-//W3C//DTD SVG 20010904//EN"
 "http://www.w3.org/TR/2001/REC-SVG-20010904/DTD/svg10.dtd">
<svg version="1.0" xmlns="http://www.w3.org/2000/svg"
 width="1414.000000pt" height="2000.000000pt" viewBox="0 0 1414.000000 2000.000000"
 preserveAspectRatio="xMidYMid meet">

<g transform="translate(0.000000,2000.000000) scale(0.100000,-0.100000)"
fill="#11389A" stroke="none">
<path d="M6810 16455 c-562 -77 -1075 -413 -1381 -905 -368 -593 -376 -1358
-20 -1968 191 -328 536 -636 879 -787 667 -293 1430 -191 1986 264 96 79 269
259 337 351 202 273 328 594 368 935 13 111 6 391 -14 505 -57 340 -193 644
-405 905 -70 86 -222 236 -310 306 -267 214 -607 355 -960 399 -112 13 -362
11 -480 -5z m629 -437 c181 -45 444 -167 516 -238 19 -20 19 -20 -57 -98 -43
-42 -84 -94 -93 -114 -63 -153 86 -318 241 -268 26 9 69 42 126 98 49 47 90
84 92 81 2 -2 26 -38 53 -79 102 -152 182 -342 217 -513 28 -134 35 -125 -103
-129 -114 -3 -121 -4 -162 -33 -49 -35 -80 -88 -86 -150 -8 -63 32 -145 88
-182 40 -26 49 -28 171 -31 124 -3 128 -4 128 -25 0 -34 -46 -214 -75 -297
-47 -129 -173 -365 -206 -386 -6 -3 -46 29 -90 71 -44 42 -96 83 -114 91 -118
49 -260 -36 -273 -164 -7 -79 12 -118 104 -213 l84 -85 -78 -51 c-186 -123
-383 -199 -609 -237 l-33 -5 0 105 c0 142 -30 207 -115 252 -83 43 -210 3
-260 -82 -23 -39 -25 -52 -25 -164 0 -66 -3 -123 -7 -125 -14 -8 -227 45 -323
80 -105 39 -247 110 -334 168 l-56 37 74 78 c80 84 100 115 111 171 20 109
-83 228 -198 229 -61 0 -104 -25 -193 -111 l-83 -81 -54 83 c-121 186 -205
402 -232 592 l-6 47 106 0 c147 0 201 25 247 114 16 31 19 53 16 102 -5 78
-41 136 -107 171 -39 20 -58 23 -163 23 l-119 0 7 38 c35 208 125 436 241 616
l44 68 83 -81 c89 -86 132 -111 193 -111 81 1 171 69 192 147 24 86 7 130 -95
234 -46 47 -84 88 -84 92 0 3 39 31 87 63 100 66 235 132 348 169 86 29 264
67 277 59 4 -3 8 -57 8 -121 0 -106 2 -120 25 -159 28 -47 88 -88 145 -98 52
-9 130 17 167 56 52 53 63 93 63 222 l0 116 33 -7 c17 -3 83 -19 146 -35z"/>
<path d="M7000 15349 c-40 -16 -89 -58 -108 -92 -14 -27 -18 -68 -22 -267 l-5
-235 -187 -5 -186 -5 -43 -30 c-125 -88 -115 -271 20 -342 43 -23 49 -23 346
-23 297 0 303 0 346 23 24 13 58 43 74 66 l30 43 3 357 3 357 -28 54 c-23 44
-39 59 -82 82 -56 29 -114 35 -161 17z"/>
<path d="M4605 14527 c-749 -417 -1369 -984 -1835 -1682 -72 -107 -202 -318
-197 -320 1 -1 106 1 232 3 l230 5 65 99 c371 569 939 1108 1534 1459 l126 74
-6 65 c-3 36 -9 133 -12 217 l-7 152 -130 -72z"/>
<path d="M9386 14511 c-3 -47 -11 -144 -17 -216 -9 -107 -9 -131 2 -138 480
-283 717 -463 1055 -801 230 -231 417 -454 559 -668 l38 -58 234 0 c207 0 234
2 229 15 -12 32 -182 284 -275 410 -166 223 -297 373 -510 585 -382 381 -750
657 -1198 897 l-111 60 -6 -86z"/>
<path d="M10896 12209 c-159 -38 -309 -177 -361 -336 l-17 -53 -217 -1 c-119
0 -234 -2 -256 -5 -209 -24 -393 -151 -482 -334 -23 -47 -46 -109 -52 -138 -8
-37 -11 -543 -11 -1650 0 -1388 2 -1605 15 -1661 39 -164 170 -324 325 -399
47 -22 112 -45 144 -51 85 -16 3005 -15 3078 0 172 36 339 168 416 329 22 47
45 109 51 138 8 37 11 537 11 1650 0 1773 5 1647 -67 1792 -49 98 -151 201
-248 252 -129 67 -152 71 -442 76 l-261 4 -22 61 c-58 160 -188 281 -345 322
-50 13 -148 15 -640 14 -319 -1 -597 -5 -619 -10z m1201 -422 l28 -27 0 -145
0 -145 -28 -27 -27 -28 -550 0 -550 0 -27 28 -28 27 0 144 c0 130 2 146 20
166 11 12 29 26 40 31 11 4 262 7 557 6 l538 -2 27 -28z m-1560 -436 c54 -158
189 -283 354 -326 79 -21 1179 -21 1258 0 166 44 292 160 351 323 l23 63 243
-3 242 -3 43 -30 c23 -16 52 -48 63 -70 l21 -40 3 -1560 c3 -1741 8 -1610 -68
-1679 -21 -19 -56 -39 -77 -45 -53 -15 -2893 -15 -2946 0 -21 6 -56 26 -77 45
-76 69 -71 -63 -68 1686 l3 1566 30 43 c17 23 50 53 74 66 43 22 53 23 276 23
l232 0 20 -59z"/>
<path d="M10625 10581 c-149 -67 -152 -281 -6 -358 l44 -23 857 0 857 0 44 23
c145 77 144 283 -2 357 -37 19 -64 20 -896 20 -811 0 -860 -1 -898 -19z"/>
<path d="M10625 9773 c-149 -78 -153 -282 -6 -360 l44 -23 857 0 857 0 44 23
c145 77 144 283 -2 357 -37 19 -64 20 -901 20 -766 -1 -866 -3 -893 -17z"/>
<path d="M10625 8963 c-141 -74 -155 -257 -26 -348 l43 -30 867 -3 867 -2 45
23 c145 77 144 283 -2 357 -37 19 -64 20 -901 20 -767 -1 -866 -3 -893 -17z"/>
<path d="M2551 12115 c-117 -33 -214 -105 -279 -209 -39 -61 -43 -64 -119 -91
-43 -15 -121 -47 -173 -72 l-95 -45 -96 12 c-125 14 -209 2 -309 -47 -65 -31
-96 -56 -236 -197 -167 -166 -195 -205 -228 -315 -19 -66 -21 -187 -3 -256 13
-50 13 -50 -33 -148 -26 -53 -60 -135 -75 -181 -27 -78 -31 -84 -74 -107 -121
-64 -211 -194 -231 -334 -12 -89 -13 -380 0 -465 19 -131 114 -272 227 -335
46 -26 50 -32 82 -119 18 -50 52 -132 75 -181 42 -89 42 -91 29 -140 -19 -76
-16 -192 7 -268 27 -88 79 -154 252 -324 123 -121 157 -148 219 -178 106 -50
200 -63 305 -41 l81 16 89 -41 c49 -23 130 -56 179 -74 85 -31 92 -36 127 -86
77 -112 192 -193 306 -218 83 -17 465 -14 537 4 118 31 232 119 286 219 22 42
31 49 94 72 39 15 120 49 181 76 103 45 115 49 150 39 79 -20 158 -23 232 -7
123 26 171 59 360 249 143 144 176 183 201 237 52 111 62 229 30 340 -10 32
-6 44 34 128 25 51 60 132 77 180 29 81 35 90 77 117 76 48 150 130 190 213
l38 76 3 254 c3 232 2 259 -17 320 -34 113 -114 214 -213 270 -44 25 -49 32
-79 112 -17 47 -51 127 -75 178 l-43 92 14 68 c26 119 12 228 -41 335 -30 60
-333 373 -400 413 -106 63 -226 83 -348 59 l-83 -17 -74 38 c-41 20 -120 54
-176 74 l-102 36 -50 71 c-57 81 -143 151 -229 184 -53 22 -74 23 -302 26
-192 2 -257 -1 -299 -12z m473 -424 c24 -22 26 -31 26 -106 l0 -82 73 -12 c92
-16 286 -80 391 -130 45 -21 125 -65 178 -98 l95 -60 56 54 c86 83 93 81 251
-76 119 -118 130 -133 130 -165 0 -30 -9 -45 -52 -89 -29 -29 -52 -56 -52 -59
0 -4 25 -46 56 -93 101 -155 185 -363 223 -552 l18 -88 79 -6 c93 -6 107 -12
123 -45 15 -33 15 -354 0 -387 -16 -35 -50 -47 -132 -47 l-72 0 -17 -88 c-35
-182 -122 -396 -227 -559 -28 -44 -51 -84 -51 -89 0 -6 22 -32 49 -58 54 -54
67 -85 50 -119 -6 -12 -63 -75 -127 -139 -143 -145 -153 -147 -239 -65 l-55
53 -81 -54 c-174 -116 -354 -187 -612 -239 l-40 -9 -5 -83 c-5 -75 -8 -85 -33
-107 -27 -23 -33 -24 -197 -24 -93 0 -180 4 -195 10 -35 13 -55 65 -55 142 l0
63 -87 18 c-187 39 -410 132 -578 241 l-70 45 -55 -54 c-88 -87 -95 -84 -257
78 -161 161 -162 165 -79 255 l55 58 -50 75 c-104 154 -193 371 -234 572 l-18
87 -77 0 c-63 0 -82 4 -104 21 l-26 20 0 189 c0 237 -2 233 124 239 l85 3 7
37 c33 195 126 431 242 616 l50 80 -54 58 c-84 90 -82 95 79 255 159 158 161
158 246 78 l57 -55 74 51 c153 103 354 187 556 230 l104 23 0 63 c0 74 20 129
52 142 13 5 103 8 200 7 172 -2 177 -3 202 -26z"/>
<path d="M2645 11095 c-184 -28 -370 -102 -519 -205 -88 -61 -216 -185 -284
-277 -101 -134 -184 -326 -218 -500 -23 -117 -23 -319 0 -436 107 -552 569
-959 1127 -993 467 -29 925 233 1141 652 208 402 180 863 -75 1244 -64 96
-221 253 -317 317 -256 172 -567 244 -855 198z m361 -415 c144 -34 251 -92
362 -195 112 -103 182 -219 228 -372 35 -119 38 -297 5 -418 -72 -269 -264
-475 -529 -568 -77 -27 -103 -31 -223 -35 -115 -4 -149 -1 -220 17 -366 93
-618 411 -619 784 -1 372 249 691 614 787 99 26 274 26 382 0z"/>
<path d="M6948 11195 c-320 -44 -631 -181 -890 -392 -101 -82 -295 -288 -367
-389 -228 -321 -373 -696 -425 -1094 -17 -134 -18 -481 -1 -630 64 -560 269
-1100 584 -1540 34 -47 61 -89 61 -95 0 -5 -38 -129 -84 -275 l-83 -265 -129
-56 c-71 -31 -255 -111 -409 -179 -154 -67 -371 -161 -483 -207 l-204 -85 -86
58 c-462 306 -922 748 -1206 1157 l-61 89 -50 -8 c-27 -4 -134 -10 -237 -13
l-186 -6 80 -120 c328 -488 739 -920 1206 -1268 51 -38 92 -70 90 -72 -2 -1
-117 -50 -255 -109 -192 -82 -259 -115 -278 -138 -30 -35 -12 23 -295 -983
-250 -886 -242 -852 -199 -943 15 -29 35 -51 67 -70 l47 -27 3984 -3 c2886 -1
3995 1 4025 9 85 23 157 132 141 212 -21 103 -490 1749 -508 1780 -27 48 -40
56 -210 128 -216 91 -457 201 -456 208 0 3 60 50 134 104 353 261 720 638
1000 1028 58 80 105 149 105 152 0 4 -108 7 -240 7 l-239 0 -63 -82 c-270
-356 -639 -704 -1061 -1001 l-67 -48 -313 135 c-171 74 -420 182 -552 239
l-240 103 -86 277 -86 276 74 103 c136 190 295 489 378 713 205 551 264 1106
170 1600 -210 1103 -1124 1852 -2097 1720z m447 -411 c275 -45 522 -179 745
-403 150 -151 237 -270 328 -451 191 -379 257 -798 196 -1245 -67 -488 -260
-968 -542 -1348 -86 -117 -255 -289 -357 -364 -95 -71 -242 -146 -350 -179
-82 -25 -104 -28 -245 -28 -140 0 -164 3 -245 28 -382 116 -726 463 -981 991
-283 585 -364 1218 -225 1751 168 641 613 1110 1176 1240 152 35 320 37 500 8z
m-1119 -4095 c66 -53 215 -149 295 -189 105 -53 266 -108 373 -127 121 -21
335 -20 441 2 234 49 476 164 648 308 27 22 52 36 56 31 5 -5 23 -56 41 -114
90 -297 103 -333 133 -367 39 -44 54 -52 497 -241 1369 -584 1696 -724 1702
-730 5 -5 344 -1198 374 -1316 l6 -26 -3670 0 c-2419 0 -3673 3 -3677 10 -6 9
347 1289 363 1319 5 8 201 97 438 198 462 198 1414 612 1608 700 66 29 129 61
139 71 31 28 51 77 118 295 35 114 66 207 70 207 3 0 24 -14 45 -31z"/>
</g>
</svg>
