<svg width="44" height="43" viewBox="0 0 44 43" fill="none" xmlns="http://www.w3.org/2000/svg">
<path d="M9.16667 22.8609C9.16667 20.4282 9.16667 19.2119 9.66985 18.1427C10.173 17.0736 11.118 16.282 13.008 14.6988L14.8413 13.1631C18.2574 10.3016 19.9654 8.87085 22 8.87085C24.0346 8.87085 25.7426 10.3016 29.1587 13.1631L30.992 14.6988C32.882 16.282 33.827 17.0736 34.3302 18.1427C34.8333 19.2119 34.8333 20.4282 34.8333 22.8609V30.4582C34.8333 33.8366 34.8333 35.5258 33.7594 36.5754C32.6855 37.6249 30.957 37.6249 27.5 37.6249H16.5C13.043 37.6249 11.3146 37.6249 10.2406 36.5754C9.16667 35.5258 9.16667 33.8366 9.16667 30.4582V22.8609Z" stroke="#11389A" stroke-width="2"/>
<path d="M26.5833 37.625V27.875C26.5833 27.3227 26.1356 26.875 25.5833 26.875H18.4167C17.8644 26.875 17.4167 27.3227 17.4167 27.875V37.625" stroke="#11389A" stroke-width="2" stroke-linecap="round" stroke-linejoin="round"/>
</svg>
