<svg xmlns="http://www.w3.org/2000/svg" xmlns:xlink="http://www.w3.org/1999/xlink" width="502" zoomAndPan="magnify" viewBox="0 0 376.5 270.749997" height="361" preserveAspectRatio="xMidYMid meet" version="1.0"><defs><g/></defs><g fill="#000000" fill-opacity="1"><g transform="translate(46.936122, 139.289392)"><g><path d="M 4.828125 0 L 4.828125 -55.640625 L 26.78125 -55.640625 C 31 -55.640625 34.59375 -54.835938 37.5625 -53.234375 C 40.539062 -51.628906 42.8125 -49.410156 44.375 -46.578125 C 45.9375 -43.742188 46.71875 -40.476562 46.71875 -36.78125 C 46.71875 -33.082031 45.921875 -29.828125 44.328125 -27.015625 C 42.734375 -24.203125 40.425781 -22 37.40625 -20.40625 C 34.394531 -18.820312 30.753906 -18.03125 26.484375 -18.03125 L 16.59375 -18.03125 L 16.59375 0 Z M 16.59375 -27.46875 L 24.578125 -27.46875 C 27.953125 -27.46875 30.46875 -28.332031 32.125 -30.0625 C 33.78125 -31.789062 34.609375 -34.03125 34.609375 -36.78125 C 34.609375 -39.550781 33.78125 -41.78125 32.125 -43.46875 C 30.46875 -45.164062 27.9375 -46.015625 24.53125 -46.015625 L 16.59375 -46.015625 Z M 16.59375 -27.46875 "/></g></g></g><g fill="#000000" fill-opacity="1"><g transform="translate(100.460827, 139.289392)"><g><path d="M 4.828125 0 L 4.828125 -55.640625 L 16.59375 -55.640625 L 16.59375 -9.703125 L 40.453125 -9.703125 L 40.453125 0 Z M 4.828125 0 "/></g></g></g><g fill="#000000" fill-opacity="1"><g transform="translate(147.846582, 139.289392)"><g><path d="M 14.421875 0 L 1.8125 0 L 21.03125 -55.640625 L 36.1875 -55.640625 L 55.359375 0 L 42.765625 0 L 38.625 -12.6875 L 18.546875 -12.6875 Z M 21.546875 -21.875 L 35.671875 -21.875 L 28.828125 -42.921875 L 28.390625 -42.921875 Z M 21.546875 -21.875 "/></g></g></g><g fill="#000000" fill-opacity="1"><g transform="translate(209.031396, 139.289392)"><g><path d="M 51.375 -55.640625 L 51.375 0 L 41.21875 0 L 17 -35.015625 L 16.59375 -35.015625 L 16.59375 0 L 4.828125 0 L 4.828125 -55.640625 L 15.15625 -55.640625 L 39.171875 -20.640625 L 39.65625 -20.640625 L 39.65625 -55.640625 Z M 51.375 -55.640625 "/></g></g></g><g fill="#000000" fill-opacity="1"><g transform="translate(269.238318, 139.289392)"><g><path d="M 55.96875 -27.8125 C 55.96875 -21.75 54.820312 -16.585938 52.53125 -12.328125 C 50.238281 -8.078125 47.125 -4.832031 43.1875 -2.59375 C 39.257812 -0.351562 34.832031 0.765625 29.90625 0.765625 C 24.96875 0.765625 20.53125 -0.351562 16.59375 -2.59375 C 12.664062 -4.84375 9.5625 -8.097656 7.28125 -12.359375 C 5 -16.628906 3.859375 -21.78125 3.859375 -27.8125 C 3.859375 -33.882812 5 -39.046875 7.28125 -43.296875 C 9.5625 -47.554688 12.664062 -50.800781 16.59375 -53.03125 C 20.53125 -55.269531 24.96875 -56.390625 29.90625 -56.390625 C 34.832031 -56.390625 39.257812 -55.269531 43.1875 -53.03125 C 47.125 -50.800781 50.238281 -47.554688 52.53125 -43.296875 C 54.820312 -39.046875 55.96875 -33.882812 55.96875 -27.8125 Z M 44.03125 -27.8125 C 44.03125 -33.71875 42.742188 -38.222656 40.171875 -41.328125 C 37.609375 -44.441406 34.1875 -46 29.90625 -46 C 25.632812 -46 22.210938 -44.441406 19.640625 -41.328125 C 17.066406 -38.222656 15.78125 -33.71875 15.78125 -27.8125 C 15.78125 -21.925781 17.066406 -17.425781 19.640625 -14.3125 C 22.210938 -11.195312 25.632812 -9.640625 29.90625 -9.640625 C 34.1875 -9.640625 37.609375 -11.195312 40.171875 -14.3125 C 42.742188 -17.425781 44.03125 -21.925781 44.03125 -27.8125 Z M 44.03125 -27.8125 "/></g></g></g><g fill="#7ed957" fill-opacity="1"><g transform="translate(54.691099, 184.812386)"><g><path d="M 2 0 L 2 -5.078125 L 4.078125 -5.265625 C 5.285156 -5.390625 5.890625 -5.976562 5.890625 -7.03125 L 5.890625 -36.203125 L 2.328125 -36.390625 L 2.328125 -41.71875 L 20.265625 -41.71875 C 24.953125 -41.71875 28.597656 -40.617188 31.203125 -38.421875 C 33.816406 -36.222656 35.125 -32.925781 35.125 -28.53125 C 35.125 -24.144531 33.640625 -20.726562 30.671875 -18.28125 C 27.703125 -15.832031 23.773438 -14.609375 18.890625 -14.609375 L 13.546875 -14.609375 L 13.546875 -5.515625 L 19.578125 -5.328125 L 19.578125 0 Z M 13.546875 -20.703125 L 18.0625 -20.703125 C 24.175781 -20.703125 27.234375 -23.191406 27.234375 -28.171875 C 27.234375 -31.179688 26.445312 -33.175781 24.875 -34.15625 C 23.300781 -35.144531 20.800781 -35.640625 17.375 -35.640625 L 13.546875 -35.640625 Z M 13.546875 -20.703125 "/></g></g></g><g fill="#7ed957" fill-opacity="1"><g transform="translate(92.692613, 184.812386)"><g><path d="M 5.953125 -7.03125 L 5.953125 -24.40625 C 5.953125 -25.070312 5.835938 -25.539062 5.609375 -25.8125 C 5.378906 -26.082031 4.972656 -26.238281 4.390625 -26.28125 L 1.75 -26.46875 L 1.75 -31.5625 L 12.359375 -31.5625 L 12.359375 -26.84375 C 13.109375 -28.476562 14.273438 -29.828125 15.859375 -30.890625 C 17.453125 -31.960938 19.285156 -32.5 21.359375 -32.5 C 23.429688 -32.5 25.410156 -32.035156 27.296875 -31.109375 L 27.296875 -21.765625 L 21.453125 -21.328125 L 21.453125 -24.21875 C 21.453125 -25.050781 21.242188 -25.570312 20.828125 -25.78125 C 20.367188 -25.988281 19.804688 -26.09375 19.140625 -26.09375 C 17.460938 -26.09375 16.085938 -25.492188 15.015625 -24.296875 C 13.953125 -23.109375 13.421875 -21.597656 13.421875 -19.765625 L 13.421875 -5.203125 L 18.890625 -4.953125 L 18.890625 0 L 2.0625 0 L 2.0625 -4.765625 L 4.140625 -4.953125 C 4.765625 -5.035156 5.222656 -5.210938 5.515625 -5.484375 C 5.804688 -5.753906 5.953125 -6.269531 5.953125 -7.03125 Z M 5.953125 -7.03125 "/></g></g></g><g fill="#7ed957" fill-opacity="1"><g transform="translate(122.667492, 184.812386)"><g><path d="M 17.8125 -32.5 C 20.945312 -32.5 23.4375 -31.734375 25.28125 -30.203125 C 27.125 -28.679688 28.046875 -26.539062 28.046875 -23.78125 C 28.046875 -21.9375 27.644531 -20.3125 26.84375 -18.90625 C 26.050781 -17.507812 25.066406 -16.410156 23.890625 -15.609375 C 22.722656 -14.816406 21.304688 -14.171875 19.640625 -13.671875 C 16.835938 -12.835938 13.675781 -12.421875 10.15625 -12.421875 C 10.28125 -10.203125 10.96875 -8.410156 12.21875 -7.046875 C 13.476562 -5.691406 15.40625 -5.015625 18 -5.015625 C 20.59375 -5.015625 23.1875 -5.9375 25.78125 -7.78125 L 28.171875 -2.703125 C 27.328125 -1.941406 25.910156 -1.164062 23.921875 -0.375 C 21.941406 0.414062 19.675781 0.8125 17.125 0.8125 C 12.019531 0.8125 8.273438 -0.597656 5.890625 -3.421875 C 3.515625 -6.242188 2.328125 -10.117188 2.328125 -15.046875 C 2.328125 -19.984375 3.6875 -24.125 6.40625 -27.46875 C 9.125 -30.820312 12.925781 -32.5 17.8125 -32.5 Z M 14.953125 -18.15625 C 16.484375 -18.425781 17.894531 -19.03125 19.1875 -19.96875 C 20.488281 -20.914062 21.140625 -22.039062 21.140625 -23.34375 C 21.140625 -25.882812 19.882812 -27.15625 17.375 -27.15625 C 15.03125 -27.15625 13.226562 -26.222656 11.96875 -24.359375 C 10.71875 -22.503906 10.03125 -20.28125 9.90625 -17.6875 C 11.75 -17.726562 13.429688 -17.882812 14.953125 -18.15625 Z M 14.953125 -18.15625 "/></g></g></g><g fill="#7ed957" fill-opacity="1"><g transform="translate(154.02194, 184.812386)"><g><path d="M 1.6875 -26.46875 L 1.6875 -31.5625 L 12.296875 -31.5625 L 12.296875 -27.484375 C 14.640625 -30.828125 17.847656 -32.5 21.921875 -32.5 C 26.003906 -32.5 28.753906 -30.828125 30.171875 -27.484375 C 32.515625 -30.828125 35.691406 -32.5 39.703125 -32.5 C 42.722656 -32.5 45.046875 -31.585938 46.671875 -29.765625 C 48.304688 -27.941406 49.125 -25.210938 49.125 -21.578125 L 49.125 -5.203125 L 52.703125 -5.015625 L 52.703125 0 L 37.765625 0 L 37.765625 -4.765625 L 39.84375 -4.953125 C 40.46875 -5.035156 40.914062 -5.210938 41.1875 -5.484375 C 41.457031 -5.753906 41.613281 -6.25 41.65625 -6.96875 L 41.65625 -19.953125 C 41.65625 -22.253906 41.394531 -23.957031 40.875 -25.0625 C 40.351562 -26.164062 39.128906 -26.71875 37.203125 -26.71875 C 35.273438 -26.71875 33.796875 -26.132812 32.765625 -24.96875 C 31.742188 -23.800781 31.234375 -22.234375 31.234375 -20.265625 L 31.234375 -5.203125 L 34.6875 -5.015625 L 34.6875 0 L 19.890625 0 L 19.890625 -4.765625 L 21.953125 -4.953125 C 22.578125 -5.035156 23.035156 -5.210938 23.328125 -5.484375 C 23.628906 -5.753906 23.78125 -6.269531 23.78125 -7.03125 L 23.78125 -19.953125 C 23.78125 -22.253906 23.515625 -23.957031 22.984375 -25.0625 C 22.460938 -26.164062 21.226562 -26.71875 19.28125 -26.71875 C 17.34375 -26.71875 15.867188 -26.113281 14.859375 -24.90625 C 13.859375 -23.695312 13.359375 -22.191406 13.359375 -20.390625 L 13.359375 -5.203125 L 16.75 -5.015625 L 16.75 0 L 1.9375 0 L 1.9375 -4.765625 L 4.015625 -4.953125 C 4.640625 -5.035156 5.097656 -5.210938 5.390625 -5.484375 C 5.679688 -5.753906 5.828125 -6.269531 5.828125 -7.03125 L 5.890625 -7.03125 L 5.890625 -24.34375 C 5.890625 -25.050781 5.773438 -25.539062 5.546875 -25.8125 C 5.316406 -26.082031 4.910156 -26.238281 4.328125 -26.28125 Z M 1.6875 -26.46875 "/></g></g></g><g fill="#7ed957" fill-opacity="1"><g transform="translate(209.330877, 184.812386)"><g><path d="M 13.421875 -31.5625 L 13.421875 -5.203125 L 17 -5.015625 L 17 0 L 2.0625 0 L 2.0625 -4.765625 L 4.140625 -4.953125 C 5.347656 -5.078125 5.953125 -5.75 5.953125 -6.96875 L 5.953125 -24.40625 C 5.953125 -25.113281 5.835938 -25.59375 5.609375 -25.84375 C 5.378906 -26.09375 4.972656 -26.21875 4.390625 -26.21875 L 2.203125 -26.34375 L 2.203125 -31.5625 Z M 5.515625 -36.984375 C 4.640625 -37.835938 4.203125 -38.929688 4.203125 -40.265625 C 4.203125 -41.609375 4.640625 -42.726562 5.515625 -43.625 C 6.398438 -44.53125 7.550781 -44.984375 8.96875 -44.984375 C 10.394531 -44.984375 11.554688 -44.53125 12.453125 -43.625 C 13.347656 -42.726562 13.796875 -41.609375 13.796875 -40.265625 C 13.796875 -38.929688 13.347656 -37.835938 12.453125 -36.984375 C 11.554688 -36.128906 10.394531 -35.703125 8.96875 -35.703125 C 7.550781 -35.703125 6.398438 -36.128906 5.515625 -36.984375 Z M 5.515625 -36.984375 "/></g></g></g><g fill="#7ed957" fill-opacity="1"><g transform="translate(228.896215, 184.812386)"><g><path d="M 35.3125 -4.953125 L 35.3125 0 L 25.15625 0 L 25.15625 -4.078125 C 22.851562 -0.816406 19.46875 0.8125 15 0.8125 C 8.507812 0.8125 5.265625 -2.800781 5.265625 -10.03125 L 5.265625 -24.53125 C 5.265625 -25.65625 4.742188 -26.238281 3.703125 -26.28125 L 1.6875 -26.40625 L 1.6875 -31.5625 L 12.734375 -31.5625 L 12.734375 -11.671875 C 12.734375 -9.453125 13.046875 -7.773438 13.671875 -6.640625 C 14.296875 -5.515625 15.59375 -4.953125 17.5625 -4.953125 C 19.53125 -4.953125 21.109375 -5.554688 22.296875 -6.765625 C 23.492188 -7.984375 24.09375 -9.453125 24.09375 -11.171875 L 24.09375 -24.40625 C 24.09375 -25.070312 23.976562 -25.539062 23.75 -25.8125 C 23.519531 -26.082031 23.109375 -26.238281 22.515625 -26.28125 L 20.515625 -26.40625 L 20.515625 -31.5625 L 31.5625 -31.5625 L 31.5625 -6.96875 C 31.5625 -6.289062 31.664062 -5.835938 31.875 -5.609375 C 32.082031 -5.378906 32.5 -5.222656 33.125 -5.140625 Z M 35.3125 -4.953125 "/></g></g></g><g fill="#7ed957" fill-opacity="1"><g transform="translate(266.960444, 184.812386)"><g><path d="M 1.6875 -26.46875 L 1.6875 -31.5625 L 12.296875 -31.5625 L 12.296875 -27.484375 C 14.640625 -30.828125 17.847656 -32.5 21.921875 -32.5 C 26.003906 -32.5 28.753906 -30.828125 30.171875 -27.484375 C 32.515625 -30.828125 35.691406 -32.5 39.703125 -32.5 C 42.722656 -32.5 45.046875 -31.585938 46.671875 -29.765625 C 48.304688 -27.941406 49.125 -25.210938 49.125 -21.578125 L 49.125 -5.203125 L 52.703125 -5.015625 L 52.703125 0 L 37.765625 0 L 37.765625 -4.765625 L 39.84375 -4.953125 C 40.46875 -5.035156 40.914062 -5.210938 41.1875 -5.484375 C 41.457031 -5.753906 41.613281 -6.25 41.65625 -6.96875 L 41.65625 -19.953125 C 41.65625 -22.253906 41.394531 -23.957031 40.875 -25.0625 C 40.351562 -26.164062 39.128906 -26.71875 37.203125 -26.71875 C 35.273438 -26.71875 33.796875 -26.132812 32.765625 -24.96875 C 31.742188 -23.800781 31.234375 -22.234375 31.234375 -20.265625 L 31.234375 -5.203125 L 34.6875 -5.015625 L 34.6875 0 L 19.890625 0 L 19.890625 -4.765625 L 21.953125 -4.953125 C 22.578125 -5.035156 23.035156 -5.210938 23.328125 -5.484375 C 23.628906 -5.753906 23.78125 -6.269531 23.78125 -7.03125 L 23.78125 -19.953125 C 23.78125 -22.253906 23.515625 -23.957031 22.984375 -25.0625 C 22.460938 -26.164062 21.226562 -26.71875 19.28125 -26.71875 C 17.34375 -26.71875 15.867188 -26.113281 14.859375 -24.90625 C 13.859375 -23.695312 13.359375 -22.191406 13.359375 -20.390625 L 13.359375 -5.203125 L 16.75 -5.015625 L 16.75 0 L 1.9375 0 L 1.9375 -4.765625 L 4.015625 -4.953125 C 4.640625 -5.035156 5.097656 -5.210938 5.390625 -5.484375 C 5.679688 -5.753906 5.828125 -6.269531 5.828125 -7.03125 L 5.890625 -7.03125 L 5.890625 -24.34375 C 5.890625 -25.050781 5.773438 -25.539062 5.546875 -25.8125 C 5.316406 -26.082031 4.910156 -26.238281 4.328125 -26.28125 Z M 1.6875 -26.46875 "/></g></g></g></svg>