<svg xmlns="http://www.w3.org/2000/svg" xmlns:xlink="http://www.w3.org/1999/xlink" width="502" zoomAndPan="magnify" viewBox="0 0 376.5 270.749997" height="361" preserveAspectRatio="xMidYMid meet" version="1.0"><defs><g/></defs><g fill="#000000" fill-opacity="1"><g transform="translate(46.936122, 139.289392)"><g><path d="M 4.828125 0 L 4.828125 -55.640625 L 26.78125 -55.640625 C 31 -55.640625 34.59375 -54.835938 37.5625 -53.234375 C 40.539062 -51.628906 42.8125 -49.410156 44.375 -46.578125 C 45.9375 -43.742188 46.71875 -40.476562 46.71875 -36.78125 C 46.71875 -33.082031 45.921875 -29.828125 44.328125 -27.015625 C 42.734375 -24.203125 40.425781 -22 37.40625 -20.40625 C 34.394531 -18.820312 30.753906 -18.03125 26.484375 -18.03125 L 16.59375 -18.03125 L 16.59375 0 Z M 16.59375 -27.46875 L 24.578125 -27.46875 C 27.953125 -27.46875 30.46875 -28.332031 32.125 -30.0625 C 33.78125 -31.789062 34.609375 -34.03125 34.609375 -36.78125 C 34.609375 -39.550781 33.78125 -41.78125 32.125 -43.46875 C 30.46875 -45.164062 27.9375 -46.015625 24.53125 -46.015625 L 16.59375 -46.015625 Z M 16.59375 -27.46875 "/></g></g></g><g fill="#000000" fill-opacity="1"><g transform="translate(100.460827, 139.289392)"><g><path d="M 4.828125 0 L 4.828125 -55.640625 L 16.59375 -55.640625 L 16.59375 -9.703125 L 40.453125 -9.703125 L 40.453125 0 Z M 4.828125 0 "/></g></g></g><g fill="#000000" fill-opacity="1"><g transform="translate(147.846582, 139.289392)"><g><path d="M 14.421875 0 L 1.8125 0 L 21.03125 -55.640625 L 36.1875 -55.640625 L 55.359375 0 L 42.765625 0 L 38.625 -12.6875 L 18.546875 -12.6875 Z M 21.546875 -21.875 L 35.671875 -21.875 L 28.828125 -42.921875 L 28.390625 -42.921875 Z M 21.546875 -21.875 "/></g></g></g><g fill="#000000" fill-opacity="1"><g transform="translate(209.031396, 139.289392)"><g><path d="M 51.375 -55.640625 L 51.375 0 L 41.21875 0 L 17 -35.015625 L 16.59375 -35.015625 L 16.59375 0 L 4.828125 0 L 4.828125 -55.640625 L 15.15625 -55.640625 L 39.171875 -20.640625 L 39.65625 -20.640625 L 39.65625 -55.640625 Z M 51.375 -55.640625 "/></g></g></g><g fill="#000000" fill-opacity="1"><g transform="translate(269.238318, 139.289392)"><g><path d="M 55.96875 -27.8125 C 55.96875 -21.75 54.820312 -16.585938 52.53125 -12.328125 C 50.238281 -8.078125 47.125 -4.832031 43.1875 -2.59375 C 39.257812 -0.351562 34.832031 0.765625 29.90625 0.765625 C 24.96875 0.765625 20.53125 -0.351562 16.59375 -2.59375 C 12.664062 -4.84375 9.5625 -8.097656 7.28125 -12.359375 C 5 -16.628906 3.859375 -21.78125 3.859375 -27.8125 C 3.859375 -33.882812 5 -39.046875 7.28125 -43.296875 C 9.5625 -47.554688 12.664062 -50.800781 16.59375 -53.03125 C 20.53125 -55.269531 24.96875 -56.390625 29.90625 -56.390625 C 34.832031 -56.390625 39.257812 -55.269531 43.1875 -53.03125 C 47.125 -50.800781 50.238281 -47.554688 52.53125 -43.296875 C 54.820312 -39.046875 55.96875 -33.882812 55.96875 -27.8125 Z M 44.03125 -27.8125 C 44.03125 -33.71875 42.742188 -38.222656 40.171875 -41.328125 C 37.609375 -44.441406 34.1875 -46 29.90625 -46 C 25.632812 -46 22.210938 -44.441406 19.640625 -41.328125 C 17.066406 -38.222656 15.78125 -33.71875 15.78125 -27.8125 C 15.78125 -21.925781 17.066406 -17.425781 19.640625 -14.3125 C 22.210938 -11.195312 25.632812 -9.640625 29.90625 -9.640625 C 34.1875 -9.640625 37.609375 -11.195312 40.171875 -14.3125 C 42.742188 -17.425781 44.03125 -21.925781 44.03125 -27.8125 Z M 44.03125 -27.8125 "/></g></g></g><g fill="#004aad" fill-opacity="1"><g transform="translate(123.156277, 184.812386)"><g><path d="M 31.9375 0 L 2.140625 0 L 2.140625 -5.078125 L 4.203125 -5.265625 C 5.410156 -5.390625 6.015625 -5.976562 6.015625 -7.03125 L 6.015625 -36.203125 L 2.453125 -36.390625 L 2.453125 -41.71875 L 31.171875 -41.71875 L 31.171875 -31.296875 L 24.78125 -30.859375 L 24.78125 -33.375 C 24.78125 -34.082031 24.675781 -34.582031 24.46875 -34.875 C 24.257812 -35.164062 23.753906 -35.3125 22.953125 -35.3125 L 13.671875 -35.3125 L 13.671875 -24.59375 L 28.171875 -24.59375 L 28.171875 -18.1875 L 13.671875 -18.1875 L 13.671875 -6.46875 L 23.78125 -6.46875 C 24.53125 -6.46875 25.007812 -6.625 25.21875 -6.9375 C 25.425781 -7.25 25.53125 -7.757812 25.53125 -8.46875 L 25.53125 -11.609375 L 31.9375 -11.171875 Z M 31.9375 0 "/></g></g></g><g fill="#004aad" fill-opacity="1"><g transform="translate(158.586752, 184.812386)"><g><path d="M 13.296875 -44.734375 L 13.296875 -5.203125 L 16.875 -5.015625 L 16.875 0 L 1.9375 0 L 1.9375 -4.765625 L 4.015625 -4.953125 C 5.222656 -5.078125 5.828125 -5.75 5.828125 -6.96875 L 5.828125 -37.890625 C 5.828125 -38.804688 5.304688 -39.304688 4.265625 -39.390625 L 2.0625 -39.515625 L 2.0625 -44.734375 Z M 13.296875 -44.734375 "/></g></g></g><g fill="#004aad" fill-opacity="1"><g transform="translate(178.277501, 184.812386)"><g><path d="M 13.421875 -31.5625 L 13.421875 -5.203125 L 17 -5.015625 L 17 0 L 2.0625 0 L 2.0625 -4.765625 L 4.140625 -4.953125 C 5.347656 -5.078125 5.953125 -5.75 5.953125 -6.96875 L 5.953125 -24.40625 C 5.953125 -25.113281 5.835938 -25.59375 5.609375 -25.84375 C 5.378906 -26.09375 4.972656 -26.21875 4.390625 -26.21875 L 2.203125 -26.34375 L 2.203125 -31.5625 Z M 5.515625 -36.984375 C 4.640625 -37.835938 4.203125 -38.929688 4.203125 -40.265625 C 4.203125 -41.609375 4.640625 -42.726562 5.515625 -43.625 C 6.398438 -44.53125 7.550781 -44.984375 8.96875 -44.984375 C 10.394531 -44.984375 11.554688 -44.53125 12.453125 -43.625 C 13.347656 -42.726562 13.796875 -41.609375 13.796875 -40.265625 C 13.796875 -38.929688 13.347656 -37.835938 12.453125 -36.984375 C 11.554688 -36.128906 10.394531 -35.703125 8.96875 -35.703125 C 7.550781 -35.703125 6.398438 -36.128906 5.515625 -36.984375 Z M 5.515625 -36.984375 "/></g></g></g><g fill="#004aad" fill-opacity="1"><g transform="translate(197.842832, 184.812386)"><g><path d="M 9.03125 -38.203125 L 13.109375 -38.203125 L 13.109375 -31.5625 L 21.453125 -31.5625 L 20.828125 -26.28125 L 13.109375 -26.28125 L 13.109375 -9.78125 C 13.109375 -7.945312 13.441406 -6.660156 14.109375 -5.921875 C 14.785156 -5.191406 15.820312 -4.828125 17.21875 -4.828125 C 18.625 -4.828125 20.035156 -5.265625 21.453125 -6.140625 L 23.34375 -1.3125 C 21.25 0.144531 18.59375 0.875 15.375 0.875 C 13.488281 0.875 11.894531 0.632812 10.59375 0.15625 C 9.300781 -0.320312 8.34375 -0.851562 7.71875 -1.4375 C 7.09375 -2.03125 6.609375 -2.890625 6.265625 -4.015625 C 5.929688 -5.140625 5.742188 -6.023438 5.703125 -6.671875 C 5.660156 -7.328125 5.640625 -8.28125 5.640625 -9.53125 L 5.640625 -26.28125 L 1.1875 -26.28125 L 1.8125 -30.859375 C 3.78125 -31.023438 5.265625 -31.722656 6.265625 -32.953125 C 7.273438 -34.191406 8.195312 -35.941406 9.03125 -38.203125 Z M 9.03125 -38.203125 "/></g></g></g><g fill="#004aad" fill-opacity="1"><g transform="translate(222.487506, 184.812386)"><g><path d="M 17.8125 -32.5 C 20.945312 -32.5 23.4375 -31.734375 25.28125 -30.203125 C 27.125 -28.679688 28.046875 -26.539062 28.046875 -23.78125 C 28.046875 -21.9375 27.644531 -20.3125 26.84375 -18.90625 C 26.050781 -17.507812 25.066406 -16.410156 23.890625 -15.609375 C 22.722656 -14.816406 21.304688 -14.171875 19.640625 -13.671875 C 16.835938 -12.835938 13.675781 -12.421875 10.15625 -12.421875 C 10.28125 -10.203125 10.96875 -8.410156 12.21875 -7.046875 C 13.476562 -5.691406 15.40625 -5.015625 18 -5.015625 C 20.59375 -5.015625 23.1875 -5.9375 25.78125 -7.78125 L 28.171875 -2.703125 C 27.328125 -1.941406 25.910156 -1.164062 23.921875 -0.375 C 21.941406 0.414062 19.675781 0.8125 17.125 0.8125 C 12.019531 0.8125 8.273438 -0.597656 5.890625 -3.421875 C 3.515625 -6.242188 2.328125 -10.117188 2.328125 -15.046875 C 2.328125 -19.984375 3.6875 -24.125 6.40625 -27.46875 C 9.125 -30.820312 12.925781 -32.5 17.8125 -32.5 Z M 14.953125 -18.15625 C 16.484375 -18.425781 17.894531 -19.03125 19.1875 -19.96875 C 20.488281 -20.914062 21.140625 -22.039062 21.140625 -23.34375 C 21.140625 -25.882812 19.882812 -27.15625 17.375 -27.15625 C 15.03125 -27.15625 13.226562 -26.222656 11.96875 -24.359375 C 10.71875 -22.503906 10.03125 -20.28125 9.90625 -17.6875 C 11.75 -17.726562 13.429688 -17.882812 14.953125 -18.15625 Z M 14.953125 -18.15625 "/></g></g></g></svg>