<svg width="33" height="21" viewBox="0 0 33 21" fill="none" xmlns="http://www.w3.org/2000/svg">
<mask id="mask0_1229_275" style="mask-type:luminance" maskUnits="userSpaceOnUse" x="0" y="0" width="33" height="21">
<path d="M0 0H33V20.3372H0V0Z" fill="white"/>
</mask>
<g mask="url(#mask0_1229_275)">
<path d="M29.2287 13.8979C29.2287 13.6581 29.0348 13.4622 28.795 13.4622H26.1249C25.8831 13.4622 25.6892 13.6581 25.6892 13.8979V16.568C25.6892 16.8078 25.8831 17.0036 26.1249 17.0036H28.795C29.0348 17.0036 29.2287 16.8078 29.2287 16.568V13.8979ZM12.8606 16.1902H2.80389V17.0036H12.8606V16.1902ZM2.80389 14.2756H9.87675V13.4622H2.80389V14.2756ZM33.0339 7.31468V17.849C33.0339 19.1221 32.0007 20.1553 30.7276 20.1553H2.32024C1.04716 20.1553 0.013916 19.1221 0.013916 17.849V7.31468H33.0339ZM33.0339 2.30432V4.06504H0.013916V2.30432C0.013916 1.03125 1.04716 0 2.32024 0H30.7276C32.0007 0 33.0339 1.03125 33.0339 2.30432Z" fill="#A0A7AF"/>
</g>
</svg>
