<svg width="43" height="43" viewBox="0 0 43 43" fill="none" xmlns="http://www.w3.org/2000/svg">
<path d="M35.8333 15.1666C35.8333 11.3954 35.8333 9.50977 34.6618 8.3382C33.4902 7.16663 31.6046 7.16663 27.8333 7.16663H15.1667C11.3954 7.16663 9.50982 7.16663 8.33824 8.3382C7.16667 9.50977 7.16667 11.3954 7.16667 15.1666V33.8333C7.16667 34.7761 7.16667 35.2475 7.45956 35.5404C7.75246 35.8333 8.22386 35.8333 9.16667 35.8333H27.8333C31.6046 35.8333 33.4902 35.8333 34.6618 34.6617C35.8333 33.4901 35.8333 31.6045 35.8333 27.8333V15.1666Z" stroke="#11389A" stroke-width="2"/>
<path d="M16.125 17.9166L26.875 17.9166" stroke="#11389A" stroke-width="2" stroke-linecap="round" stroke-linejoin="round"/>
<path d="M16.125 25.0834H21.5" stroke="#11389A" stroke-width="2" stroke-linecap="round" stroke-linejoin="round"/>
</svg>
