<svg width="34" height="34" viewBox="0 0 34 34" fill="none" xmlns="http://www.w3.org/2000/svg">
<path fill-rule="evenodd" clip-rule="evenodd" d="M10.625 0H23.375C29.2421 0 34 4.75787 34 10.625V23.375C34 29.2421 29.2421 34 23.375 34H10.625C4.75787 34 0 29.2421 0 23.375V10.625C0 4.75787 4.75787 0 10.625 0ZM23.375 30.8125C27.4762 30.8125 30.8125 27.4762 30.8125 23.375V10.625C30.8125 6.52375 27.4762 3.1875 23.375 3.1875H10.625C6.52375 3.1875 3.1875 6.52375 3.1875 10.625V23.375C3.1875 27.4762 6.52375 30.8125 10.625 30.8125H23.375ZM8.5 17C8.5 12.3059 12.3059 8.5 17 8.5C21.6941 8.5 25.5 12.3059 25.5 17C25.5 21.6941 21.6941 25.5 17 25.5C12.3059 25.5 8.5 21.6941 8.5 17ZM11.6875 17C11.6875 19.9282 14.0718 22.3125 17 22.3125C19.9282 22.3125 22.3125 19.9282 22.3125 17C22.3125 14.0696 19.9282 11.6875 17 11.6875C14.0718 11.6875 11.6875 14.0696 11.6875 17ZM27.2702 7.86251C27.2702 8.48804 26.7631 8.99513 26.1376 8.99513C25.512 8.99513 25.0049 8.48804 25.0049 7.86251C25.0049 7.23698 25.512 6.72988 26.1376 6.72988C26.7631 6.72988 27.2702 7.23698 27.2702 7.86251Z" fill="white"/>
</svg>
