<svg width="38" height="38" viewBox="0 0 38 38" fill="none" xmlns="http://www.w3.org/2000/svg">
<path fill-rule="evenodd" clip-rule="evenodd" d="M8.3125 4.15625C8.3125 6.45168 6.45168 8.3125 4.15625 8.3125C1.86082 8.3125 0 6.45168 0 4.15625C0 1.86082 1.86082 0 4.15625 0C6.45168 0 8.3125 1.86082 8.3125 4.15625ZM0 11.875H8.49775V38H0V11.875ZM31.6445 12.1814C31.6144 12.1719 31.5849 12.1621 31.5553 12.1523C31.4962 12.1328 31.4371 12.1133 31.3738 12.0959C31.2598 12.0697 31.1458 12.0484 31.0294 12.0294C30.5781 11.9391 30.0841 11.875 29.5046 11.875C24.5504 11.875 21.4083 15.4779 20.3728 16.8696V11.875H11.875V38H20.3728V23.75C20.3728 23.75 26.7948 14.8057 29.5046 21.375V38H38V20.3704C38 16.4231 35.2949 13.1337 31.6445 12.1814Z" fill="white"/>
</svg>
