<svg width="33" height="33" viewBox="0 0 33 33" fill="none" xmlns="http://www.w3.org/2000/svg">
<path d="M15.8345 0.0345249C14.4037 0.230874 13.0976 1.08767 12.3185 2.34227C11.3816 3.85442 11.3612 5.80517 12.2676 7.36067C12.7539 8.19707 13.6322 8.98247 14.5055 9.36752C16.2037 10.1147 18.1462 9.85457 19.5618 8.69432C19.8062 8.49287 20.2467 8.03387 20.4198 7.79927C20.9341 7.10312 21.2549 6.28457 21.3567 5.41502C21.3898 5.13197 21.372 4.41797 21.3211 4.12727C21.1759 3.26027 20.8297 2.48507 20.2899 1.81952C20.1117 1.60022 19.7247 1.21772 19.5007 1.03922C18.8209 0.493525 17.9553 0.133974 17.0566 0.0217743C16.7714 -0.0113754 16.1349 -0.00627518 15.8345 0.0345249ZM17.4359 1.14887C17.8967 1.26362 18.5663 1.57472 18.7496 1.75577C18.798 1.80677 18.798 1.80677 18.6045 2.00567C18.495 2.11277 18.3906 2.24537 18.3677 2.29637C18.2073 2.68652 18.5867 3.10727 18.9813 2.97977C19.0475 2.95682 19.157 2.87267 19.3021 2.72987C19.4269 2.61002 19.5312 2.51567 19.5363 2.52332C19.5414 2.52842 19.6025 2.62022 19.6713 2.72477C19.931 3.11237 20.1346 3.59687 20.2237 4.03292C20.295 4.37462 20.3129 4.35167 19.9615 4.36187C19.6713 4.36952 19.6534 4.37207 19.5491 4.44602C19.4243 4.53527 19.3454 4.67042 19.3301 4.82852C19.3097 4.98917 19.4116 5.19827 19.5542 5.29262C19.656 5.35892 19.6789 5.36402 19.9895 5.37167C20.3052 5.37932 20.3154 5.38187 20.3154 5.43542C20.3154 5.52212 20.1983 5.98112 20.1245 6.19277C20.0048 6.52172 19.684 7.12352 19.6 7.17707C19.5847 7.18472 19.4829 7.10312 19.3708 6.99602C19.2588 6.88892 19.1264 6.78437 19.0806 6.76397C18.7802 6.63902 18.4187 6.85577 18.3856 7.18217C18.3677 7.38362 18.4161 7.48307 18.6503 7.72532L18.8642 7.94207L18.6656 8.07212C18.1921 8.38577 17.6905 8.57957 17.1151 8.67647L17.0311 8.68922V8.42147C17.0311 8.05937 16.9547 7.89362 16.7383 7.77887C16.527 7.66922 16.2037 7.77122 16.0764 7.98797C16.0178 8.08742 16.0127 8.12057 16.0127 8.40617C16.0127 8.57447 16.0051 8.71982 15.9949 8.72492C15.9592 8.74532 15.417 8.61017 15.1725 8.52092C14.9052 8.42147 14.5437 8.24042 14.3222 8.09252L14.1796 7.99817L14.368 7.79927C14.5717 7.58507 14.6226 7.50602 14.6506 7.36322C14.7015 7.08527 14.4393 6.78182 14.1465 6.77927C13.9912 6.77927 13.8817 6.84302 13.6551 7.06232L13.4438 7.26887L13.3063 7.05722C12.9983 6.58292 12.7844 6.03212 12.7157 5.54762L12.7004 5.42777H12.9703C13.3445 5.42777 13.482 5.36402 13.5991 5.13707C13.6399 5.05802 13.6475 5.00192 13.6399 4.87697C13.6271 4.67807 13.5355 4.53017 13.3675 4.44092C13.2682 4.38992 13.2198 4.38227 12.9525 4.38227H12.6495L12.6673 4.28537C12.7564 3.75497 12.9856 3.17357 13.2809 2.71457L13.3929 2.54117L13.6042 2.74772C13.8308 2.96702 13.9403 3.03077 14.0956 3.03077C14.3018 3.02822 14.531 2.85482 14.5844 2.65592C14.6455 2.43662 14.6022 2.32442 14.3426 2.05922C14.2254 1.93937 14.1287 1.83482 14.1287 1.82462C14.1287 1.81697 14.228 1.74557 14.3502 1.66397C14.6048 1.49567 14.9485 1.32737 15.2362 1.23302C15.4551 1.15907 15.9083 1.06217 15.9414 1.08257C15.9516 1.09022 15.9618 1.22792 15.9618 1.39112C15.9618 1.66142 15.9669 1.69712 16.0254 1.79657C16.0967 1.91642 16.2495 2.02097 16.3946 2.04647C16.527 2.06942 16.7256 2.00312 16.8198 1.90367C16.9522 1.76852 16.9802 1.66652 16.9802 1.33757V1.04177L17.0642 1.05962C17.1075 1.06727 17.2755 1.10807 17.4359 1.14887Z" fill="#A0A7AF"/>
<path d="M16.3183 2.85489C16.2165 2.89569 16.0917 3.00279 16.0434 3.08949C16.0077 3.15834 15.9975 3.26289 15.9873 3.77034L15.9746 4.36959L15.4985 4.38234L15.025 4.39509L14.9155 4.47159C14.5972 4.69599 14.6227 5.16264 14.9664 5.34369C15.0759 5.40234 15.0912 5.40234 15.8473 5.40234C16.6035 5.40234 16.6187 5.40234 16.7282 5.34369C16.7893 5.31054 16.8759 5.23404 16.9166 5.17539L16.993 5.06574L17.0006 4.15539L17.0083 3.24504L16.937 3.10734C16.8784 2.99514 16.8377 2.95689 16.7282 2.89824C16.5856 2.82429 16.438 2.80899 16.3183 2.85489Z" fill="#A0A7AF"/>
<path d="M10.2206 4.95086C8.31371 6.01421 6.73521 7.46006 5.54879 9.23996C5.36548 9.51281 5.0345 10.0509 5.04723 10.056C5.04978 10.0585 5.3171 10.0534 5.6379 10.0483L6.22347 10.0356L6.38896 9.78311C7.33351 8.33216 8.77962 6.95771 10.2945 6.06266L10.6153 5.87396L10.6 5.70821C10.5924 5.61641 10.5771 5.36906 10.5694 5.15486L10.5516 4.76726L10.2206 4.95086Z" fill="#A0A7AF"/>
<path d="M22.3929 4.99178C22.3852 5.11163 22.3649 5.35898 22.3496 5.54258C22.3267 5.81543 22.3267 5.87663 22.3547 5.89448C23.5768 6.61613 24.1802 7.07513 25.0407 7.93703C25.6263 8.52608 26.1024 9.09473 26.4639 9.64043L26.5606 9.78833H27.1564C27.6834 9.78833 27.7522 9.78323 27.7394 9.75008C27.7089 9.66848 27.2761 9.02588 27.0393 8.70458C26.6166 8.13593 26.2831 7.75343 25.7408 7.21283C24.7683 6.24128 23.8314 5.53748 22.6908 4.92548L22.4082 4.77248L22.3929 4.99178Z" fill="#A0A7AF"/>
<path d="M26.2373 10.8618C25.8325 10.9587 25.4506 11.3132 25.3182 11.7186L25.2749 11.8538L24.7224 11.8563C24.4195 11.8563 24.1267 11.8614 24.0707 11.8691C23.5386 11.9303 23.0701 12.2541 22.8435 12.7208C22.7849 12.8406 22.7264 12.9987 22.7111 13.0727C22.6907 13.167 22.6831 14.4573 22.6831 17.2802C22.6831 20.8196 22.6882 21.3729 22.7213 21.5157C22.8206 21.9339 23.1541 22.3419 23.5487 22.5332C23.6684 22.5893 23.8339 22.6479 23.9154 22.6632C24.1318 22.704 31.566 22.7015 31.7518 22.6632C32.1898 22.5714 32.6149 22.2348 32.811 21.8243C32.867 21.7044 32.9255 21.5463 32.9408 21.4724C32.9612 21.378 32.9688 20.103 32.9688 17.2649C32.9688 12.7437 32.9816 13.065 32.7982 12.6953C32.6735 12.4454 32.4138 12.1827 32.1668 12.0527C31.8384 11.8818 31.7799 11.8716 31.0415 11.8589L30.377 11.8487L30.321 11.6931C30.1733 11.2851 29.8424 10.9766 29.4427 10.872C29.3154 10.8389 29.0658 10.8338 27.8132 10.8363C27.0011 10.8389 26.2933 10.8491 26.2373 10.8618ZM29.295 11.9379L29.3663 12.0068V12.3765V12.7463L29.295 12.8151L29.2262 12.8865H27.826H26.4257L26.3569 12.8151L26.2857 12.7463V12.3791C26.2857 12.0476 26.2907 12.0068 26.3366 11.9558C26.3646 11.9252 26.4104 11.8895 26.4384 11.8767C26.4664 11.8665 27.1055 11.8589 27.8565 11.8614L29.2262 11.8665L29.295 11.9379ZM25.3233 13.0497C25.4608 13.4526 25.8045 13.7714 26.2245 13.881C26.4257 13.9346 29.2262 13.9346 29.4274 13.881C29.85 13.7688 30.1708 13.473 30.321 13.0574L30.3796 12.8967L30.9982 12.9044L31.6144 12.912L31.7238 12.9885C31.7824 13.0293 31.8562 13.1109 31.8842 13.167L31.9377 13.269L31.9453 17.247C31.953 21.6866 31.9657 21.3525 31.7722 21.5285C31.7188 21.5769 31.6296 21.6279 31.5762 21.6432C31.4412 21.6815 24.2107 21.6815 24.0758 21.6432C24.0223 21.6279 23.9332 21.5769 23.8797 21.5285C23.6862 21.3525 23.6989 21.6891 23.7066 17.2292L23.7142 13.2359L23.7906 13.1262C23.8339 13.0676 23.9179 12.9911 23.979 12.9579C24.0885 12.9018 24.1139 12.8993 24.6817 12.8993H25.2724L25.3233 13.0497Z" fill="#A0A7AF"/>
<path d="M25.5472 15.0133C25.1678 15.1842 25.1602 15.7299 25.5319 15.9262L25.6439 15.9849H27.8258H30.0077L30.1197 15.9262C30.4889 15.7299 30.4863 15.2046 30.1146 15.0159C30.0204 14.9674 29.9517 14.9649 27.8334 14.9649C25.7687 14.9649 25.6439 14.9674 25.5472 15.0133Z" fill="#A0A7AF"/>
<path d="M25.5472 17.0736C25.1678 17.2725 25.1576 17.7927 25.5319 17.9916L25.6439 18.0503H27.8258H30.0077L30.1197 17.9916C30.4889 17.7953 30.4863 17.27 30.1146 17.0813C30.0204 17.0328 29.9517 17.0303 27.8207 17.0303C25.8705 17.0328 25.6159 17.0379 25.5472 17.0736Z" fill="#A0A7AF"/>
<path d="M25.5472 19.1391C25.1882 19.3278 25.1525 19.7944 25.481 20.0265L25.5905 20.103L27.7978 20.1106L30.0052 20.1157L30.1197 20.0571C30.4889 19.8607 30.4864 19.3354 30.1146 19.1467C30.0204 19.0983 29.9517 19.0957 27.8207 19.0957C25.868 19.0983 25.6159 19.1034 25.5472 19.1391Z" fill="#A0A7AF"/>
<path d="M4.99106 11.1015C4.69319 11.1856 4.44623 11.3692 4.28074 11.6344C4.18145 11.79 4.17126 11.7976 3.97777 11.8665C3.86829 11.9047 3.66971 11.9864 3.53732 12.0501L3.29545 12.1649L3.05104 12.1342C2.73279 12.0985 2.51893 12.1292 2.26433 12.2541C2.09884 12.3331 2.01992 12.3969 1.66348 12.7564C1.23831 13.1798 1.16702 13.2792 1.083 13.5597C1.03463 13.728 1.02954 14.0366 1.07536 14.2125C1.10846 14.34 1.10846 14.34 0.991346 14.5899C0.925151 14.7251 0.838588 14.9342 0.800399 15.0515C0.731657 15.2504 0.721474 15.2657 0.611997 15.3243C0.303935 15.4875 0.0747974 15.819 0.023878 16.176C-0.00667363 16.403 -0.0092196 17.145 0.023878 17.3618C0.0722514 17.6958 0.314119 18.0554 0.601813 18.216C0.718928 18.2823 0.729111 18.2976 0.810582 18.5195C0.85641 18.647 0.942973 18.8561 1.00153 18.981C1.10846 19.208 1.10846 19.2131 1.07536 19.338C1.02699 19.5318 1.03463 19.8276 1.09319 20.0214C1.16193 20.2458 1.29432 20.4141 1.73477 20.8476C2.04792 21.1562 2.13449 21.225 2.29234 21.3015C2.56221 21.429 2.80153 21.4622 3.06886 21.4061L3.27508 21.3653L3.50167 21.4698C3.62642 21.5285 3.83265 21.6126 3.9574 21.6585C4.17381 21.7376 4.19163 21.7503 4.28074 21.8778C4.47678 22.1634 4.76956 22.37 5.0598 22.4337C5.27112 22.4771 6.24368 22.4694 6.42699 22.4235C6.72741 22.3445 7.01765 22.1201 7.15514 21.8651C7.21115 21.758 7.23406 21.7401 7.39446 21.6815C7.49375 21.6432 7.69997 21.5565 7.85528 21.4877C8.11751 21.3729 8.14807 21.3627 8.23717 21.3882C8.43831 21.4392 8.63944 21.4469 8.82784 21.4061C9.14099 21.3398 9.2632 21.2556 9.74439 20.7711C10.1085 20.4039 10.1925 20.3045 10.2561 20.1668C10.3885 19.8837 10.414 19.5828 10.3325 19.2998C10.307 19.2182 10.3172 19.1876 10.4191 18.9734C10.4827 18.8433 10.5718 18.6368 10.6151 18.5144C10.6889 18.3078 10.7042 18.2849 10.8111 18.216C11.0046 18.0936 11.193 17.8845 11.2949 17.6729L11.3916 17.4791L11.3993 16.8314C11.4069 16.2398 11.4044 16.1709 11.356 16.0154C11.2694 15.7272 11.0657 15.4697 10.8137 15.3269C10.7017 15.2631 10.6889 15.2453 10.6126 15.0413C10.5693 14.9214 10.4827 14.7174 10.4216 14.5874L10.3121 14.3527L10.3478 14.1793C10.414 13.8759 10.3783 13.5979 10.2434 13.3251C10.167 13.1721 9.39559 12.374 9.22501 12.2719C8.95514 12.1113 8.64962 12.0603 8.33901 12.1215L8.1277 12.1649L7.9393 12.068C7.83491 12.017 7.63378 11.9302 7.49121 11.8792L7.23152 11.7874L7.10422 11.6064C6.9591 11.3998 6.74014 11.2213 6.52119 11.1372C6.38625 11.0811 6.33279 11.0785 5.75231 11.0709C5.26348 11.0658 5.09799 11.0734 4.99106 11.1015ZM6.19531 12.1827C6.25641 12.2388 6.2615 12.2618 6.2615 12.453V12.6621L6.44736 12.6927C6.68159 12.7335 7.17551 12.8967 7.44283 13.0242C7.5574 13.0778 7.76108 13.1899 7.89601 13.2741L8.13788 13.4271L8.28046 13.2894C8.49941 13.0778 8.51723 13.0829 8.91949 13.4832C9.22246 13.7841 9.25047 13.8224 9.25047 13.904C9.25047 13.9805 9.22756 14.0187 9.11808 14.1309C9.04425 14.2049 8.98569 14.2737 8.98569 14.2814C8.98569 14.2916 9.04934 14.3987 9.12826 14.5185C9.38541 14.9138 9.59927 15.4442 9.69601 15.9261L9.74184 16.1505L9.94297 16.1658C10.1797 16.1811 10.2154 16.1964 10.2561 16.2806C10.2943 16.3647 10.2943 17.1833 10.2561 17.2674C10.2154 17.3567 10.1288 17.3873 9.92006 17.3873H9.73675L9.69347 17.6117C9.60436 18.0758 9.38286 18.6215 9.11553 19.0371C9.04425 19.1493 8.98569 19.2513 8.98569 19.2641C8.98569 19.2794 9.0417 19.3457 9.11044 19.412C9.24792 19.5497 9.28102 19.6287 9.23774 19.7154C9.22246 19.746 9.07734 19.9067 8.9144 20.0699C8.55033 20.4396 8.52487 20.4447 8.30591 20.2356L8.16589 20.1005L7.95966 20.2382C7.51666 20.534 7.05839 20.715 6.40153 20.8476L6.29969 20.8706L6.28696 21.0822C6.27423 21.2735 6.26659 21.299 6.20294 21.3551C6.1342 21.4137 6.11893 21.4163 5.70139 21.4163C5.46461 21.4163 5.24311 21.4061 5.20493 21.3908C5.11582 21.3576 5.0649 21.225 5.0649 21.0287V20.868L4.8434 20.8221C4.3673 20.7227 3.79955 20.4855 3.37183 20.2076L3.19361 20.0928L3.05358 20.2305C2.82954 20.4524 2.81171 20.4447 2.39927 20.0316C1.98937 19.6211 1.98682 19.6109 2.19814 19.3814L2.33816 19.2335L2.21087 19.0422C1.94608 18.6495 1.71949 18.0962 1.61511 17.5836L1.56928 17.3618H1.37324C1.21285 17.3618 1.16447 17.3516 1.10846 17.3082L1.04227 17.2572V16.7753C1.04227 16.1709 1.03717 16.1811 1.35797 16.1658L1.57437 16.1582L1.59219 16.0638C1.67621 15.5666 1.91299 14.9648 2.20832 14.493L2.33562 14.289L2.19814 14.1411C1.98427 13.9116 1.98937 13.8989 2.39927 13.4909C2.80408 13.0879 2.80917 13.0879 3.02558 13.292L3.1707 13.4322L3.3591 13.3021C3.74863 13.0395 4.26037 12.8253 4.77466 12.7157L5.03944 12.657V12.4964C5.03944 12.3077 5.09036 12.1674 5.17183 12.1342C5.20493 12.1215 5.43406 12.1139 5.68102 12.1164C6.11893 12.1215 6.13166 12.1241 6.19531 12.1827Z" fill="#A0A7AF"/>
<path d="M5.23027 13.7026C4.76181 13.774 4.28826 13.9627 3.90891 14.2253C3.68486 14.3809 3.35898 14.6971 3.18585 14.9317C2.92871 15.2734 2.71739 15.763 2.63083 16.2067C2.57227 16.505 2.57227 17.0201 2.63083 17.3185C2.90325 18.7261 4.07949 19.7639 5.50014 19.8506C6.68911 19.9246 7.85516 19.2565 8.40509 18.188C8.93465 17.1629 8.86336 15.9874 8.21414 15.0158C8.0512 14.771 7.65148 14.3707 7.40707 14.2075C6.7553 13.7689 5.96351 13.5853 5.23027 13.7026ZM6.14936 14.7608C6.51598 14.8475 6.7884 14.9954 7.071 15.2581C7.35615 15.5207 7.53437 15.8165 7.65148 16.2067C7.74059 16.5101 7.74823 16.964 7.66421 17.2726C7.4809 17.9585 6.99208 18.4838 6.31739 18.721C6.12136 18.7898 6.05516 18.8 5.74964 18.8102C5.45686 18.8204 5.37029 18.8128 5.18953 18.7669C4.25771 18.5297 3.61612 17.7188 3.61358 16.7677C3.61103 15.8191 4.24752 15.0056 5.1768 14.7608C5.42885 14.6945 5.8744 14.6945 6.14936 14.7608Z" fill="#A0A7AF"/>
<path d="M16.1857 13.4475C15.371 13.5597 14.5792 13.9091 13.9198 14.4471C13.6627 14.6562 13.1688 15.1815 12.9855 15.4391C12.405 16.2576 12.0358 17.2139 11.9034 18.2288C11.8601 18.5705 11.8576 19.4553 11.9009 19.8353C12.0638 21.2633 12.5857 22.6403 13.3877 23.7623C13.4743 23.8821 13.543 23.9892 13.543 24.0045C13.543 24.0173 13.4463 24.3335 13.3292 24.7058L13.1178 25.3815L12.7894 25.5243C12.6087 25.6034 12.1402 25.8074 11.7481 25.9808C11.356 26.1516 10.8036 26.3913 10.5184 26.5086L9.99904 26.7254L9.78008 26.5775C8.60385 25.7972 7.4327 24.6701 6.70964 23.6271L6.55434 23.4002L6.42704 23.4206C6.3583 23.4308 6.08588 23.4461 5.82365 23.4537L5.3501 23.469L5.55378 23.775C6.38885 25.0194 7.43525 26.121 8.62421 27.0084C8.75406 27.1053 8.85844 27.1869 8.85335 27.192C8.84826 27.1946 8.55547 27.3195 8.20413 27.47C7.7153 27.6791 7.54472 27.7632 7.49635 27.8219C7.41997 27.9111 7.4658 27.7632 6.74529 30.3285C6.1088 32.5878 6.12916 32.5011 6.23864 32.7332C6.27683 32.8071 6.32775 32.8632 6.40922 32.9117L6.52888 32.9805L16.672 32.9882C24.0197 32.9907 26.8432 32.9856 26.9195 32.9652C27.136 32.9066 27.3193 32.6286 27.2785 32.4246C27.2251 32.162 26.031 27.9647 25.9852 27.8856C25.9164 27.7632 25.8833 27.7428 25.4505 27.5592C24.9006 27.3272 24.287 27.0467 24.2896 27.0288C24.2896 27.0212 24.4423 26.9013 24.6307 26.7636C25.5294 26.0981 26.4638 25.1367 27.1767 24.1422C27.3244 23.9382 27.444 23.7623 27.444 23.7546C27.444 23.7444 27.169 23.7368 26.833 23.7368H26.2245L26.0641 23.9459C25.3767 24.8537 24.4372 25.7411 23.3628 26.4984L23.1922 26.6208L22.3954 26.2766C21.96 26.0879 21.3261 25.8125 20.99 25.6671L20.379 25.4045L20.16 24.6981L19.941 23.9943L20.1294 23.7317C20.4757 23.2472 20.8805 22.4847 21.0918 21.9135C21.6137 20.5085 21.764 19.0932 21.5246 17.8335C20.99 15.0209 18.663 13.1109 16.1857 13.4475ZM17.3238 14.4956C18.0239 14.6103 18.6528 14.952 19.2205 15.5232C19.6024 15.9083 19.8239 16.2117 20.0556 16.6733C20.5419 17.6397 20.7099 18.7082 20.5546 19.848C20.384 21.0924 19.8927 22.3164 19.1747 23.2854C18.9558 23.5838 18.5255 24.0224 18.2658 24.2136C18.0239 24.3947 17.6497 24.5859 17.3747 24.6701C17.1659 24.7338 17.1099 24.7415 16.7509 24.7415C16.3945 24.7415 16.3334 24.7338 16.1272 24.6701C15.1546 24.3743 14.2788 23.4894 13.6296 22.143C12.9091 20.6513 12.7029 19.0371 13.0567 17.678C13.4845 16.0434 14.6174 14.8475 16.0508 14.516C16.4378 14.4267 16.8655 14.4216 17.3238 14.4956ZM14.4748 24.9378C14.6429 25.073 15.0222 25.3178 15.2259 25.4198C15.4932 25.5549 15.9031 25.6952 16.1756 25.7436C16.4836 25.7972 17.0285 25.7946 17.2983 25.7385C17.8941 25.6136 18.5102 25.3203 18.9481 24.9531C19.0169 24.897 19.0805 24.8613 19.0907 24.8741C19.1034 24.8868 19.1492 25.0169 19.1951 25.1648C19.4242 25.9221 19.4573 26.0139 19.5337 26.1006C19.633 26.2128 19.6712 26.2332 20.799 26.7152C24.2845 28.2044 25.117 28.5614 25.1323 28.5767C25.145 28.5894 26.0081 31.6316 26.0845 31.9325L26.0997 31.9988H16.756C10.5973 31.9988 7.40469 31.9911 7.39451 31.9733C7.37923 31.9503 8.27796 28.6863 8.3187 28.6098C8.33143 28.5894 8.83044 28.3625 9.43383 28.1049C10.6101 27.6 13.0338 26.5443 13.5277 26.3199C13.6958 26.246 13.8562 26.1644 13.8816 26.1389C13.9606 26.0675 14.0115 25.9425 14.1821 25.3866C14.2712 25.0959 14.3501 24.8588 14.3603 24.8588C14.3679 24.8588 14.4214 24.8945 14.4748 24.9378Z" fill="#A0A7AF"/>
</svg>
