<svg width="49" height="49" viewBox="0 0 49 49" fill="none" xmlns="http://www.w3.org/2000/svg">
<path d="M12.25 20.4166V16.3333C12.25 9.57533 14.2917 4.08325 24.5 4.08325C34.7083 4.08325 36.75 9.57533 36.75 16.3333V20.4166" stroke="black" stroke-width="1.5" stroke-linecap="round" stroke-linejoin="round"/>
<path d="M24.4999 37.7708C27.3189 37.7708 29.6041 35.4856 29.6041 32.6667C29.6041 29.8477 27.3189 27.5625 24.4999 27.5625C21.681 27.5625 19.3958 29.8477 19.3958 32.6667C19.3958 35.4856 21.681 37.7708 24.4999 37.7708Z" stroke="black" stroke-width="1.5" stroke-linecap="round" stroke-linejoin="round"/>
<path d="M34.7083 44.9167H14.2916C6.12492 44.9167 4.08325 42.8751 4.08325 34.7084V30.6251C4.08325 22.4584 6.12492 20.4167 14.2916 20.4167H34.7083C42.8749 20.4167 44.9166 22.4584 44.9166 30.6251V34.7084C44.9166 42.8751 42.8749 44.9167 34.7083 44.9167Z" stroke="black" stroke-width="1.5" stroke-linecap="round" stroke-linejoin="round"/>
</svg>
