<svg xmlns="http://www.w3.org/2000/svg" xmlns:xlink="http://www.w3.org/1999/xlink" width="502" zoomAndPan="magnify" viewBox="0 0 376.5 270.749997" height="361" preserveAspectRatio="xMidYMid meet" version="1.0"><defs><g/></defs><g fill="#000000" fill-opacity="1"><g transform="translate(46.936122, 136.059446)"><g><path d="M 4.828125 0 L 4.828125 -55.640625 L 26.78125 -55.640625 C 31 -55.640625 34.59375 -54.835938 37.5625 -53.234375 C 40.539062 -51.628906 42.8125 -49.410156 44.375 -46.578125 C 45.9375 -43.742188 46.71875 -40.476562 46.71875 -36.78125 C 46.71875 -33.082031 45.921875 -29.828125 44.328125 -27.015625 C 42.734375 -24.203125 40.425781 -22 37.40625 -20.40625 C 34.394531 -18.820312 30.753906 -18.03125 26.484375 -18.03125 L 16.59375 -18.03125 L 16.59375 0 Z M 16.59375 -27.46875 L 24.578125 -27.46875 C 27.953125 -27.46875 30.46875 -28.332031 32.125 -30.0625 C 33.78125 -31.789062 34.609375 -34.03125 34.609375 -36.78125 C 34.609375 -39.550781 33.78125 -41.78125 32.125 -43.46875 C 30.46875 -45.164062 27.9375 -46.015625 24.53125 -46.015625 L 16.59375 -46.015625 Z M 16.59375 -27.46875 "/></g></g></g><g fill="#000000" fill-opacity="1"><g transform="translate(100.460827, 136.059446)"><g><path d="M 4.828125 0 L 4.828125 -55.640625 L 16.59375 -55.640625 L 16.59375 -9.703125 L 40.453125 -9.703125 L 40.453125 0 Z M 4.828125 0 "/></g></g></g><g fill="#000000" fill-opacity="1"><g transform="translate(147.846582, 136.059446)"><g><path d="M 14.421875 0 L 1.8125 0 L 21.03125 -55.640625 L 36.1875 -55.640625 L 55.359375 0 L 42.765625 0 L 38.625 -12.6875 L 18.546875 -12.6875 Z M 21.546875 -21.875 L 35.671875 -21.875 L 28.828125 -42.921875 L 28.390625 -42.921875 Z M 21.546875 -21.875 "/></g></g></g><g fill="#000000" fill-opacity="1"><g transform="translate(209.031396, 136.059446)"><g><path d="M 51.375 -55.640625 L 51.375 0 L 41.21875 0 L 17 -35.015625 L 16.59375 -35.015625 L 16.59375 0 L 4.828125 0 L 4.828125 -55.640625 L 15.15625 -55.640625 L 39.171875 -20.640625 L 39.65625 -20.640625 L 39.65625 -55.640625 Z M 51.375 -55.640625 "/></g></g></g><g fill="#000000" fill-opacity="1"><g transform="translate(269.238318, 136.059446)"><g><path d="M 55.96875 -27.8125 C 55.96875 -21.75 54.820312 -16.585938 52.53125 -12.328125 C 50.238281 -8.078125 47.125 -4.832031 43.1875 -2.59375 C 39.257812 -0.351562 34.832031 0.765625 29.90625 0.765625 C 24.96875 0.765625 20.53125 -0.351562 16.59375 -2.59375 C 12.664062 -4.84375 9.5625 -8.097656 7.28125 -12.359375 C 5 -16.628906 3.859375 -21.78125 3.859375 -27.8125 C 3.859375 -33.882812 5 -39.046875 7.28125 -43.296875 C 9.5625 -47.554688 12.664062 -50.800781 16.59375 -53.03125 C 20.53125 -55.269531 24.96875 -56.390625 29.90625 -56.390625 C 34.832031 -56.390625 39.257812 -55.269531 43.1875 -53.03125 C 47.125 -50.800781 50.238281 -47.554688 52.53125 -43.296875 C 54.820312 -39.046875 55.96875 -33.882812 55.96875 -27.8125 Z M 44.03125 -27.8125 C 44.03125 -33.71875 42.742188 -38.222656 40.171875 -41.328125 C 37.609375 -44.441406 34.1875 -46 29.90625 -46 C 25.632812 -46 22.210938 -44.441406 19.640625 -41.328125 C 17.066406 -38.222656 15.78125 -33.71875 15.78125 -27.8125 C 15.78125 -21.925781 17.066406 -17.425781 19.640625 -14.3125 C 22.210938 -11.195312 25.632812 -9.640625 29.90625 -9.640625 C 34.1875 -9.640625 37.609375 -11.195312 40.171875 -14.3125 C 42.742188 -17.425781 44.03125 -21.925781 44.03125 -27.8125 Z M 44.03125 -27.8125 "/></g></g></g><g fill="#ffbd59" fill-opacity="1"><g transform="translate(94.076986, 184.812386)"><g><path d="M 2.453125 -41.71875 L 20.140625 -41.71875 C 29.171875 -41.71875 33.6875 -38.222656 33.6875 -31.234375 C 33.6875 -27.390625 31.765625 -24.460938 27.921875 -22.453125 C 30.390625 -21.828125 32.320312 -20.675781 33.71875 -19 C 35.125 -17.332031 35.828125 -15.160156 35.828125 -12.484375 C 35.828125 -8.429688 34.457031 -5.335938 31.71875 -3.203125 C 28.976562 -1.066406 24.992188 0 19.765625 0 L 2.140625 0 L 2.140625 -5.078125 L 4.203125 -5.265625 C 5.410156 -5.390625 6.015625 -5.976562 6.015625 -7.03125 L 6.015625 -36.203125 L 2.453125 -36.390625 Z M 13.671875 -19.015625 L 13.671875 -5.890625 L 19.578125 -5.890625 C 25.015625 -5.890625 27.734375 -8.109375 27.734375 -12.546875 C 27.734375 -14.640625 27.050781 -16.238281 25.6875 -17.34375 C 24.332031 -18.457031 22.398438 -19.015625 19.890625 -19.015625 Z M 13.671875 -35.953125 L 13.671875 -24.59375 L 18.3125 -24.59375 C 20.90625 -24.59375 22.816406 -25.125 24.046875 -26.1875 C 25.285156 -27.257812 25.90625 -28.753906 25.90625 -30.671875 C 25.90625 -32.597656 25.285156 -33.957031 24.046875 -34.75 C 22.816406 -35.550781 21.050781 -35.953125 18.75 -35.953125 Z M 13.671875 -35.953125 "/></g></g></g><g fill="#ffbd59" fill-opacity="1"><g transform="translate(132.830981, 184.812386)"><g><path d="M 30.234375 -30.296875 L 30.234375 -6.96875 C 30.234375 -6.289062 30.347656 -5.828125 30.578125 -5.578125 C 30.804688 -5.328125 31.21875 -5.179688 31.8125 -5.140625 L 33.8125 -5.015625 L 33.8125 0 L 23.84375 0 L 23.84375 -3.640625 L 23.65625 -3.703125 C 21.5625 -0.691406 18.695312 0.8125 15.0625 0.8125 C 10.789062 0.8125 7.628906 -0.546875 5.578125 -3.265625 C 3.535156 -5.984375 2.515625 -9.703125 2.515625 -14.421875 C 2.515625 -20.109375 3.894531 -24.539062 6.65625 -27.71875 C 9.414062 -30.90625 13.554688 -32.5 19.078125 -32.5 C 22.628906 -32.5 26.347656 -31.765625 30.234375 -30.296875 Z M 22.953125 -9.96875 L 22.953125 -26.21875 C 21.785156 -26.757812 20.175781 -27.03125 18.125 -27.03125 C 15.320312 -27.03125 13.289062 -25.898438 12.03125 -23.640625 C 10.78125 -21.390625 10.15625 -18.40625 10.15625 -14.6875 C 10.15625 -7.90625 12.332031 -4.515625 16.6875 -4.515625 C 18.53125 -4.515625 20.035156 -5.066406 21.203125 -6.171875 C 22.367188 -7.285156 22.953125 -8.550781 22.953125 -9.96875 Z M 13.421875 -37.265625 L 20.703125 -49.3125 L 23.65625 -47.921875 C 24.863281 -47.253906 25.46875 -46.503906 25.46875 -45.671875 C 25.46875 -44.835938 24.945312 -43.9375 23.90625 -42.96875 L 15.875 -35.1875 Z M 13.421875 -37.265625 "/></g></g></g><g fill="#ffbd59" fill-opacity="1"><g transform="translate(169.390191, 184.812386)"><g><path d="M 18.5 -26.78125 C 17.5 -27.164062 16.285156 -27.359375 14.859375 -27.359375 C 13.441406 -27.359375 12.300781 -27.03125 11.4375 -26.375 C 10.582031 -25.726562 10.15625 -24.929688 10.15625 -23.984375 C 10.15625 -23.046875 10.3125 -22.316406 10.625 -21.796875 C 10.945312 -21.273438 11.441406 -20.828125 12.109375 -20.453125 C 13.148438 -19.910156 14.398438 -19.4375 15.859375 -19.03125 C 17.328125 -18.632812 18.414062 -18.320312 19.125 -18.09375 C 19.84375 -17.863281 20.734375 -17.476562 21.796875 -16.9375 C 22.867188 -16.394531 23.675781 -15.8125 24.21875 -15.1875 C 25.675781 -13.632812 26.40625 -11.644531 26.40625 -9.21875 C 26.40625 -6.082031 25.265625 -3.625 22.984375 -1.84375 C 20.710938 -0.0703125 17.816406 0.8125 14.296875 0.8125 C 9.203125 0.8125 5.359375 0.164062 2.765625 -1.125 L 2.765625 -9.84375 L 8.40625 -10.28125 L 8.40625 -7.28125 C 8.40625 -5.4375 10.160156 -4.515625 13.671875 -4.515625 C 17.191406 -4.515625 18.953125 -5.789062 18.953125 -8.34375 C 18.953125 -9.257812 18.644531 -10.007812 18.03125 -10.59375 C 17.425781 -11.1875 16.832031 -11.585938 16.25 -11.796875 C 15.664062 -12.003906 14.960938 -12.210938 14.140625 -12.421875 C 13.328125 -12.628906 12.535156 -12.835938 11.765625 -13.046875 C 10.992188 -13.253906 10.15625 -13.535156 9.25 -13.890625 C 8.351562 -14.242188 7.359375 -14.757812 6.265625 -15.4375 C 4.140625 -16.8125 3.078125 -19.117188 3.078125 -22.359375 C 3.078125 -25.609375 4.222656 -28.109375 6.515625 -29.859375 C 8.816406 -31.617188 11.710938 -32.5 15.203125 -32.5 C 18.703125 -32.5 22.164062 -31.660156 25.59375 -29.984375 L 25.59375 -22.453125 L 19.953125 -22.015625 L 19.953125 -24.65625 C 19.953125 -25.695312 19.46875 -26.40625 18.5 -26.78125 Z M 18.5 -26.78125 "/></g></g></g><g fill="#ffbd59" fill-opacity="1"><g transform="translate(198.675272, 184.812386)"><g><path d="M 13.421875 -31.5625 L 13.421875 -5.203125 L 17 -5.015625 L 17 0 L 2.0625 0 L 2.0625 -4.765625 L 4.140625 -4.953125 C 5.347656 -5.078125 5.953125 -5.75 5.953125 -6.96875 L 5.953125 -24.40625 C 5.953125 -25.113281 5.835938 -25.59375 5.609375 -25.84375 C 5.378906 -26.09375 4.972656 -26.21875 4.390625 -26.21875 L 2.203125 -26.34375 L 2.203125 -31.5625 Z M 5.515625 -36.984375 C 4.640625 -37.835938 4.203125 -38.929688 4.203125 -40.265625 C 4.203125 -41.609375 4.640625 -42.726562 5.515625 -43.625 C 6.398438 -44.53125 7.550781 -44.984375 8.96875 -44.984375 C 10.394531 -44.984375 11.554688 -44.53125 12.453125 -43.625 C 13.347656 -42.726562 13.796875 -41.609375 13.796875 -40.265625 C 13.796875 -38.929688 13.347656 -37.835938 12.453125 -36.984375 C 11.554688 -36.128906 10.394531 -35.703125 8.96875 -35.703125 C 7.550781 -35.703125 6.398438 -36.128906 5.515625 -36.984375 Z M 5.515625 -36.984375 "/></g></g></g><g fill="#ffbd59" fill-opacity="1"><g transform="translate(218.240603, 184.812386)"><g><path d="M 9.65625 -16.125 C 9.65625 -12.570312 10.320312 -9.8125 11.65625 -7.84375 C 13 -5.875 14.9375 -4.890625 17.46875 -4.890625 C 20 -4.890625 22.5 -5.789062 24.96875 -7.59375 L 27.671875 -2.765625 C 24.703125 -0.335938 20.976562 0.875 16.5 0.875 C 12.019531 0.875 8.492188 -0.535156 5.921875 -3.359375 C 3.347656 -6.179688 2.0625 -10.351562 2.0625 -15.875 C 2.0625 -21.394531 3.535156 -25.546875 6.484375 -28.328125 C 9.441406 -31.109375 12.769531 -32.5 16.46875 -32.5 C 20.164062 -32.5 23.601562 -31.640625 26.78125 -29.921875 L 26.78125 -21.765625 L 21.015625 -21.328125 L 21.015625 -24.34375 C 21.015625 -25.46875 20.601562 -26.164062 19.78125 -26.4375 C 18.96875 -26.707031 18.125 -26.84375 17.25 -26.84375 C 12.1875 -26.84375 9.65625 -23.269531 9.65625 -16.125 Z M 9.65625 -16.125 "/></g></g></g><g fill="#ffbd59" fill-opacity="1"><g transform="translate(248.779842, 184.812386)"><g><path d="M 16.5 -4.578125 C 21.0625 -4.578125 23.34375 -8.257812 23.34375 -15.625 C 23.34375 -19.34375 22.828125 -22.160156 21.796875 -24.078125 C 20.773438 -26.003906 19.0625 -26.96875 16.65625 -26.96875 C 14.25 -26.96875 12.476562 -26.046875 11.34375 -24.203125 C 10.21875 -22.367188 9.65625 -19.863281 9.65625 -16.6875 C 9.65625 -10.789062 10.742188 -7.085938 12.921875 -5.578125 C 13.878906 -4.910156 15.070312 -4.578125 16.5 -4.578125 Z M 2.0625 -15.8125 C 2.0625 -18.90625 2.519531 -21.59375 3.4375 -23.875 C 4.363281 -26.15625 5.601562 -27.898438 7.15625 -29.109375 C 10.125 -31.367188 13.40625 -32.5 17 -32.5 C 19.507812 -32.5 21.628906 -32.085938 23.359375 -31.265625 C 25.097656 -30.453125 26.457031 -29.507812 27.4375 -28.4375 C 28.425781 -27.375 29.265625 -25.828125 29.953125 -23.796875 C 30.640625 -21.773438 30.984375 -19.382812 30.984375 -16.625 C 30.984375 -10.851562 29.582031 -6.484375 26.78125 -3.515625 C 23.976562 -0.546875 20.390625 0.9375 16.015625 0.9375 C 11.648438 0.9375 8.234375 -0.472656 5.765625 -3.296875 C 3.296875 -6.117188 2.0625 -10.289062 2.0625 -15.8125 Z M 2.0625 -15.8125 "/></g></g></g></svg>