<svg width="43" height="43" viewBox="0 0 43 43" fill="none" xmlns="http://www.w3.org/2000/svg">
<path d="M35.8332 15.1667C35.8332 11.3955 35.8332 9.50989 34.6616 8.33832C33.49 7.16675 31.6044 7.16675 27.8332 7.16675H15.1665C11.3953 7.16675 9.50965 7.16675 8.33808 8.33832C7.1665 9.50989 7.1665 11.3955 7.1665 15.1667V33.8334C7.1665 34.7762 7.1665 35.2476 7.4594 35.5405C7.75229 35.8334 8.22369 35.8334 9.1665 35.8334H27.8332C31.6044 35.8334 33.49 35.8334 34.6616 34.6618C35.8332 33.4903 35.8332 31.6047 35.8332 27.8334V15.1667Z" stroke="#A0A7AF" stroke-width="2"/>
<path d="M16.125 17.9167L26.875 17.9167" stroke="#A0A7AF" stroke-width="2" stroke-linecap="round" stroke-linejoin="round"/>
<path d="M16.125 25.0833H21.5" stroke="#A0A7AF" stroke-width="2" stroke-linecap="round" stroke-linejoin="round"/>
</svg>
