<svg width="44" height="44" viewBox="0 0 44 44" fill="none" xmlns="http://www.w3.org/2000/svg">
<path d="M3.66675 21.9999L3.27631 21.6876L3.02644 21.9999L3.27631 22.3123L3.66675 21.9999ZM20.1667 22.4999C20.4429 22.4999 20.6667 22.2761 20.6667 21.9999C20.6667 21.7238 20.4429 21.4999 20.1667 21.4999V22.4999ZM10.6096 12.5209L3.27631 21.6876L4.05718 22.3123L11.3905 13.1456L10.6096 12.5209ZM3.27631 22.3123L10.6096 31.4789L11.3905 30.8542L4.05718 21.6876L3.27631 22.3123ZM3.66675 22.4999H20.1667V21.4999H3.66675V22.4999Z" fill="white"/>
<path d="M18.3333 14.9086V10.7219C18.3333 9.10358 18.3333 8.29441 18.8072 7.73492C19.2812 7.17543 20.0793 7.0424 21.6757 6.77635L33.3469 4.83115C36.59 4.29063 38.2115 4.02037 39.2724 4.91907C40.3332 5.81777 40.3332 7.46168 40.3332 10.7495V33.2506C40.3332 36.5385 40.3332 38.1824 39.2724 39.0811C38.2115 39.9798 36.59 39.7095 33.3469 39.169L21.6757 37.2238C20.0793 36.9578 19.2812 36.8247 18.8072 36.2652C18.3333 35.7058 18.3333 34.8966 18.3333 33.2782V29.4544" stroke="white"/>
</svg>
