<svg xmlns="http://www.w3.org/2000/svg" xmlns:xlink="http://www.w3.org/1999/xlink" width="475" zoomAndPan="magnify" viewBox="0 0 356.25 49.499998" height="66" preserveAspectRatio="xMidYMid meet" version="1.0"><defs><g/><clipPath id="79aef4c204"><path d="M 2.132812 0.175781 L 40 0.175781 L 40 43 L 2.132812 43 Z M 2.132812 0.175781 " clip-rule="nonzero"/></clipPath></defs><g fill="#0b3354" fill-opacity="1"><g transform="translate(50.820955, 33.719387)"><g><path d="M 11.003906 0.378906 C 16.003906 0.378906 19.886719 -2.664062 20.839844 -7.28125 L 16.382812 -7.28125 C 15.59375 -5.109375 13.585938 -3.722656 11.085938 -3.722656 C 7.851562 -3.722656 5.570312 -6.085938 5.570312 -9.507812 C 5.570312 -12.933594 7.878906 -15.296875 11.113281 -15.296875 C 13.53125 -15.296875 15.511719 -13.992188 16.246094 -11.898438 L 20.703125 -11.898438 C 19.617188 -16.464844 15.8125 -19.398438 10.976562 -19.398438 C 5.214844 -19.398438 1.167969 -15.324219 1.167969 -9.507812 C 1.167969 -3.695312 5.214844 0.378906 11.003906 0.378906 Z M 11.003906 0.378906 "/></g></g></g><g fill="#0b3354" fill-opacity="1"><g transform="translate(76.814127, 33.719387)"><g><path d="M 2.28125 0 L 15.078125 0 L 15.078125 -3.667969 L 6.574219 -3.667969 L 6.574219 -7.824219 L 14.046875 -7.824219 L 14.046875 -11.4375 L 6.574219 -11.4375 L 6.574219 -15.378906 L 14.78125 -15.378906 L 14.78125 -19.019531 L 2.28125 -19.019531 Z M 2.28125 0 "/></g></g></g><g fill="#0b3354" fill-opacity="1"><g transform="translate(97.348287, 33.719387)"><g><path d="M 2.28125 0 L 6.574219 0 L 6.574219 -11.65625 L 14.96875 0 L 18.636719 0 L 18.636719 -19.019531 L 14.34375 -19.019531 L 14.34375 -7.445312 L 5.949219 -19.019531 L 2.28125 -19.019531 Z M 2.28125 0 "/></g></g></g><g fill="#0b3354" fill-opacity="1"><g transform="translate(122.336561, 33.719387)"><g><path d="M 6.847656 0 L 11.167969 0 L 11.167969 -14.96875 L 17.199219 -14.96875 L 17.199219 -19.019531 L 0.816406 -19.019531 L 0.816406 -14.96875 L 6.847656 -14.96875 Z M 6.847656 0 "/></g></g></g><g fill="#0b3354" fill-opacity="1"><g transform="translate(144.418796, 33.719387)"><g><path d="M 0.246094 0 L 4.863281 0 L 6.140625 -3.289062 L 13.691406 -3.289062 L 14.96875 0 L 19.589844 0 L 12.035156 -19.019531 L 7.796875 -19.019531 Z M 7.253906 -6.683594 L 9.917969 -13.636719 L 12.605469 -6.683594 Z M 7.253906 -6.683594 "/></g></g></g><g fill="#0b3354" fill-opacity="1"><g transform="translate(168.32071, 33.719387)"><g><path d="M 7.550781 0 L 11.789062 0 L 19.097656 -19.019531 L 14.480469 -19.019531 L 9.699219 -6.222656 L 7.417969 -12.253906 L 4.890625 -19.019531 L 0.246094 -19.019531 Z M 7.550781 0 "/></g></g></g><g fill="#0b3354" fill-opacity="1"><g transform="translate(191.73376, 33.719387)"><g><path d="M 11.300781 0.378906 C 17.25 0.378906 21.460938 -3.695312 21.460938 -9.507812 C 21.460938 -15.324219 17.25 -19.398438 11.300781 -19.398438 C 5.351562 -19.398438 1.167969 -15.324219 1.167969 -9.507812 C 1.167969 -3.695312 5.351562 0.378906 11.300781 0.378906 Z M 5.570312 -9.507812 C 5.570312 -12.933594 7.933594 -15.296875 11.300781 -15.296875 C 14.699219 -15.296875 17.035156 -12.933594 17.035156 -9.507812 C 17.035156 -6.085938 14.699219 -3.722656 11.300781 -3.722656 C 7.933594 -3.722656 5.570312 -6.085938 5.570312 -9.507812 Z M 5.570312 -9.507812 "/></g></g></g><g fill="#0b3354" fill-opacity="1"><g transform="translate(218.433077, 33.719387)"><g/></g></g><g fill="#0b3354" fill-opacity="1"><g transform="translate(228.891137, 33.719387)"><g><path d="M 11.003906 0.378906 C 16.003906 0.378906 19.886719 -2.664062 20.839844 -7.28125 L 16.382812 -7.28125 C 15.59375 -5.109375 13.585938 -3.722656 11.085938 -3.722656 C 7.851562 -3.722656 5.570312 -6.085938 5.570312 -9.507812 C 5.570312 -12.933594 7.878906 -15.296875 11.113281 -15.296875 C 13.53125 -15.296875 15.511719 -13.992188 16.246094 -11.898438 L 20.703125 -11.898438 C 19.617188 -16.464844 15.8125 -19.398438 10.976562 -19.398438 C 5.214844 -19.398438 1.167969 -15.324219 1.167969 -9.507812 C 1.167969 -3.695312 5.214844 0.378906 11.003906 0.378906 Z M 11.003906 0.378906 "/></g></g></g><g fill="#0b3354" fill-opacity="1"><g transform="translate(254.884312, 33.719387)"><g><path d="M 2.28125 0 L 15.078125 0 L 15.078125 -3.667969 L 6.574219 -3.667969 L 6.574219 -7.824219 L 14.046875 -7.824219 L 14.046875 -11.4375 L 6.574219 -11.4375 L 6.574219 -15.378906 L 14.78125 -15.378906 L 14.78125 -19.019531 L 2.28125 -19.019531 Z M 2.28125 0 "/></g></g></g><g fill="#0b3354" fill-opacity="1"><g transform="translate(275.418464, 33.719387)"><g><path d="M 2.28125 0 L 6.601562 0 L 6.601562 -5.921875 L 9.453125 -5.921875 L 12.851562 0 L 17.847656 0 L 13.910156 -6.601562 C 16.191406 -7.605469 17.523438 -9.671875 17.523438 -12.46875 C 17.523438 -16.519531 14.753906 -19.019531 10.40625 -19.019531 L 2.28125 -19.019531 Z M 6.546875 -9.5625 L 6.546875 -15.324219 L 9.835938 -15.324219 C 11.953125 -15.324219 13.148438 -14.289062 13.148438 -12.441406 C 13.148438 -10.59375 11.953125 -9.5625 9.835938 -9.5625 Z M 6.546875 -9.5625 "/></g></g></g><g fill="#0b3354" fill-opacity="1"><g transform="translate(298.614223, 33.719387)"><g><path d="M 6.847656 0 L 11.167969 0 L 11.167969 -14.96875 L 17.199219 -14.96875 L 17.199219 -19.019531 L 0.816406 -19.019531 L 0.816406 -14.96875 L 6.847656 -14.96875 Z M 6.847656 0 "/></g></g></g><g fill="#0b3354" fill-opacity="1"><g transform="translate(320.696459, 33.719387)"><g><path d="M 11.300781 0.378906 C 17.25 0.378906 21.460938 -3.695312 21.460938 -9.507812 C 21.460938 -15.324219 17.25 -19.398438 11.300781 -19.398438 C 5.351562 -19.398438 1.167969 -15.324219 1.167969 -9.507812 C 1.167969 -3.695312 5.351562 0.378906 11.300781 0.378906 Z M 5.570312 -9.507812 C 5.570312 -12.933594 7.933594 -15.296875 11.300781 -15.296875 C 14.699219 -15.296875 17.035156 -12.933594 17.035156 -9.507812 C 17.035156 -6.085938 14.699219 -3.722656 11.300781 -3.722656 C 7.933594 -3.722656 5.570312 -6.085938 5.570312 -9.507812 Z M 5.570312 -9.507812 "/></g></g></g><g clip-path="url(#79aef4c204)"><path fill="#506095" d="M 32.667969 4.71875 L 32.667969 2.617188 L 4.550781 2.617188 L 4.550781 37.335938 L 6.679688 39.464844 L 6.679688 4.71875 L 18.101562 4.71875 L 18.101562 14.148438 L 15.683594 12.074219 L 13.242188 14.148438 L 13.242188 7.160156 L 9.097656 7.160156 L 9.097656 40.453125 L 11.796875 40.453125 L 11.796875 25.761719 L 18.546875 25.761719 L 18.546875 20.386719 L 25.320312 20.386719 L 25.320312 12.621094 L 34.488281 12.621094 L 34.488281 40.453125 L 37.1875 40.453125 L 37.1875 7.160156 L 19.296875 7.160156 L 19.296875 4.71875 Z M 14.207031 40.445312 L 18.546875 40.445312 L 18.546875 28.195312 L 14.207031 28.195312 Z M 25.320312 40.445312 L 25.320312 22.785156 L 20.980469 22.785156 L 20.980469 42.890625 L 6.679688 42.890625 L 2.132812 38.34375 L 2.132812 0.171875 L 35.085938 0.171875 L 35.085938 4.71875 L 39.628906 4.71875 L 39.628906 42.890625 L 25.320312 42.890625 Z M 27.738281 40.445312 L 32.078125 40.445312 L 32.078125 15.054688 L 27.738281 15.054688 Z M 27.738281 40.445312 " fill-opacity="1" fill-rule="nonzero"/></g></svg>